<?xml version="1.0" encoding="utf-8"?>
<!-- Generator: Adobe Illustrator 19.1.0, SVG Export Plug-In . SVG Version: 6.00 Build 0)  -->
<svg version="1.1" id="Layer_1" xmlns="http://www.w3.org/2000/svg" xmlns:xlink="http://www.w3.org/1999/xlink" x="0px" y="0px"
	 viewBox="38 199.4 795.1 323.6" style="enable-background:new 38 199.4 795.1 323.6;" xml:space="preserve">
<style type="text/css">
	.st0{fill:#FFFFFF;}
	.st1{fill:#F17A22;}
	.st2{fill:#F6EB00;}
	.st3{fill:#E62825;}
	.st4{fill:#9DC950;}
	.st5{fill:#57C2F0;}
	.st6{font-family:'Raleway-ExtraBold';}
	.st7{font-size:126.75px;}
</style>
<circle class="st0" cx="193" cy="354.4" r="155"/>
<g>
	<path class="st1" d="M329.5,348.1H224.1V277h81.6C319.7,297.4,328.3,321.8,329.5,348.1z"/>
	<path class="st2" d="M329.6,357c-0.5,26.1-8.3,50.5-21.5,71.1c-2,3.1-4,6-6.2,8.9c-3.4,4.5-7.2,8.8-11.1,12.9
		c-2.8,2.9-5.8,5.7-8.9,8.4c-16.4,14-36.1,24.2-57.7,29.2c-2.9,0.7-5.9,1.3-8.9,1.8c-7.2,1.2-14.6,1.8-22.2,1.8
		c-16.7,0-32.8-3-47.6-8.5v-45.5h145.3v-80L329.6,357L329.6,357z"/>
	<path class="st3" d="M281.8,357v71.1H77.9c-13.2-20.6-21-44.9-21.5-71.1H281.8z"/>
	<path class="st4" d="M299,268.1H145.4v-41.8c14.8-5.5,30.9-8.5,47.6-8.5c7.5,0,15,0.6,22.2,1.8c3,0.5,6,1.1,8.9,1.8
		c21.7,5,41.4,15.2,57.7,29.2c3.1,2.7,6.1,5.4,8.9,8.3C293.6,261.8,296.4,264.9,299,268.1z"/>
	<g>
		<path class="st5" d="M136.5,229.9v118.2h-80c1.2-26.3,9.8-50.7,23.9-71.1c2.1-3.1,4.3-6,6.7-8.9
			C100.3,251.9,117.2,238.7,136.5,229.9z"/>
	</g>
</g>
<text transform="matrix(1 0 0 1 372.5535 347.6131)" class="st0 st6 st7">Missing</text>
<text transform="matrix(1 0 0 1 372.5535 461.6131)" class="st0 st6 st7">Maps</text>
</svg>
