<?xml version="1.0" encoding="utf-8"?>
<!-- Generator: Adobe Illustrator 19.1.0, SVG Export Plug-In . SVG Version: 6.00 Build 0)  -->
<svg version="1.1" xmlns="http://www.w3.org/2000/svg" xmlns:xlink="http://www.w3.org/1999/xlink" x="0px" y="0px"
	 viewBox="0 -404 2400 716" style="enable-background:new 0 -404 2400 716;" xml:space="preserve">
<style type="text/css">
	.st0{fill:#505050;}
	.st1{fill:#C3E4D5;stroke:#010101;stroke-width:5;stroke-miterlimit:10;}
	.st2{fill:#6C5FAA;stroke:#010101;stroke-width:3;stroke-miterlimit:10;}
	.st3{fill:#AEAEAE;}
	.st4{fill:#ECECEC;}
	.st5{fill:#CCB69E;stroke:#010101;stroke-width:5;stroke-miterlimit:10;}
	.st6{fill:#010101;}
	.st7{fill:#FFFFFF;}
</style>
<g id="Layer_1">
	<path class="st0" d="M1228-52c0,0-51.3-140-117.1-122c-65.9,18-42.1-48-42.1-48l65.9-34l64.1,48l11,58l18.3,66V-52z"/>
	<path class="st1" d="M1149.3,64.4c0,0,7.7-48.6-52.4-49.2c-60.1-0.5-83.4,18.6-118,8.3s40.8,51.1,73.3,52.6
		c32.5,1.6,79.4,22,89.7,9.5S1149.3,64.4,1149.3,64.4z"/>
	<path class="st2" d="M949.6,93.6c0,0-13.1,10.9-38.1,10.7S881,126,881,126s-18.6,13.8-43.5,13.6s-61,28.5-61,28.5
		S761,188,731.8,181.7s-52.4,33.5-52.4,33.5l34.7,7.3c0,0,22-36.8,62.2-41.5c40.2-4.6,41.4-13.6,44.7-17.6
		c3.3-4,43.5-10.6,59.9-22.5c16.4-11.9,31.6-11.7,56.6-18.5c25-6.8,38.2-23.7,38.2-23.7L949.6,93.6z"/>
	<path class="st3" d="M1226.6,72c0,0,17.3-224.4,127.9-230.9c110.6-6.5,44.1-88.9,44.1-88.9l-117.7-16.3l-78.3,99.6l8.8,88l1,103
		L1226.6,72z"/>
	<path class="st2" d="M1405.8,84.7c0,0,14.1,11.1,41.4,11.4s33,22.3,33,22.3s20.1,14.2,47.3,14.4s66.1,29.6,66.1,29.6
		s16.4,20.1,48.5,14.4c32.1-5.7,56.6,34.5,56.6,34.5l-37.9,6.7c0,0-23.3-37.2-67.1-42.6c-43.8-5.4-44.9-14.4-48.5-18.4
		s-47.3-11.4-65-23.6c-17.7-12.2-34.3-12.3-61.5-19.5s-41.2-24.4-41.2-24.4L1405.8,84.7z"/>
	<path class="st1" d="M1289.1,72.8c0,0,5.4-39.5,69.5-20.1s83.5,41.5,123.2,45.1c39.7,3.5-57.6,25.3-92.7,15.9
		c-35.1-9.5-90.6-9.4-98-22.4C1283.7,78.5,1289.1,72.8,1289.1,72.8z"/>
	<path class="st1" d="M1227.4,77.4c0,0,17.9-36.1,72.8-0.1s66.3,62.6,103.1,76.9c36.8,14.3-63.2,8.3-93.7-10.3s-83.5-33.8-86.4-48.2
		S1227.4,77.4,1227.4,77.4z"/>
	<path class="st1" d="M1058.5,91.6c0,0,7.7-48.6-52.4-49.2c-60.1-0.5-83.3,18.7-117.9,8.4s40.8,51.1,73.3,52.6
		c32.5,1.6,79.4,22,89.7,9.5C1061.4,100.3,1058.5,91.6,1058.5,91.6z"/>
	<path class="st1" d="M1093.2,113.4c0,0-16.1-46.8-70.3-23.2c-54.3,23.6-66.2,50.2-102.2,54.9c-36.1,4.7,60.8,29.5,90.9,17.9
		c30.1-11.6,81.8-12.1,85.1-27.6C1099.8,120.1,1093.2,113.4,1093.2,113.4z"/>
	<path class="st1" d="M1152.4,78.2c0,0-15.5-47-70-23.9c-54.5,23.1-66.9,49.5-102.9,53.8s60.4,30.2,90.7,18.9
		c30.2-11.3,81.9-11.2,85.4-26.5S1152.4,78.2,1152.4,78.2z"/>
	<path class="st1" d="M1167.8,96.6c0,0-32.4-39-74.7,0.2c-42.2,39.2-43.6,68-75.7,83.7s68.1,8.7,92-11.6
		c23.9-20.4,72.5-37,69.8-52.6C1176.5,100.7,1167.8,96.6,1167.8,96.6z"/>
	<path class="st1" d="M1256.3,48c0,0-3.8,38.3,59.5,32.9c63.3-5.3,86.2-22.4,123.6-17.8c37.4,4.6-47.4-35.4-81.9-33.6
		c-34.4,1.9-85.5-9.4-95.2,1.4C1252.6,41.6,1256.3,48,1256.3,48z"/>
	<path class="st4" d="M1212,38c0,0-51.3-140-117.1-122c-65.9,18-42.1-48-42.1-48l65.9-34l64.1,48l11,58L1212,6V38z"/>
	<path class="st1" d="M1257.9,76.4c0,0-15.5,35.7,46.9,47.1c62.4,11.5,89.5,1.2,124,15.4c34.5,14.2-34.5-46.4-68.1-53.7
		c-33.6-7.2-79.2-31.4-91.7-23.7C1256.4,69.1,1257.9,76.4,1257.9,76.4z"/>
	<path class="st1" d="M1225.1,88.3c0,0-27.2,29.2,27.9,58.5c55.1,29.4,84.4,27.6,112.1,51.4c27.7,23.6-16.5-54.1-45.7-71
		c-29.3-16.9-64-53.3-78.6-49.7C1226.1,81,1225.1,88.3,1225.1,88.3z"/>
	<path class="st5" d="M1118,77.4c-0.1,14.7-30.9,63,68.9,63.9c99.8,0.9,89.7-76.9,85-77s13.9-56.9-61.4-57.5
		C1135.3,6.2,1118,77.4,1118,77.4z"/>
	
		<ellipse transform="matrix(8.810239e-03 -1 1 8.810239e-03 1089.6107 1207.5203)" class="st5" cx="1153.9" cy="54.1" rx="4.7" ry="2.4"/>
	<path class="st4" d="M1218,30c0,0,56-140,128-122s46-48,46-48l-72-34l-70,48l-12,58l-20,66V30z"/>
	
		<ellipse transform="matrix(8.810239e-03 -1 1 8.810239e-03 1161.8668 1295.8381)" class="st5" cx="1234.6" cy="61.8" rx="5.3" ry="2.7"/>
	<path class="st6" d="M1141.8,85.6c0,0,69.4,9.9,90.4,4.1c21-5.8,4,34.7-45.9,32.9c-49.9-1.7-48.3-27.1-48.3-27.1L1141.8,85.6z"/>
	<polygon class="st7" points="1196.6,99.1 1199.7,107.4 1208.9,105.9 1208,100.7 	"/>
	<circle cx="21" cy="295" r="17"/>
	<circle cx="57" cy="233" r="17"/>
	<circle cx="114.2" cy="253.6" r="8.1"/>
	<circle cx="2391.9" cy="303.9" r="8.1"/>
	<circle cx="2310" cy="294" r="8.1"/>
	<circle cx="2365" cy="206.2" r="4.6"/>
	<circle cx="2290" cy="72" r="8.1"/>
</g>
<g id="Layer_2">
</g>
</svg>
