<?xml version="1.0" encoding="utf-8"?>
<!-- Generator: Adobe Illustrator 19.1.0, SVG Export Plug-In . SVG Version: 6.00 Build 0)  -->
<svg version="1.1" xmlns="http://www.w3.org/2000/svg" xmlns:xlink="http://www.w3.org/1999/xlink" x="0px" y="0px"
	 width="1737.2px" height="816.1px" viewBox="0 0 1737.2 816.1" style="enable-background:new 0 0 1737.2 816.1;"
	 xml:space="preserve">
<style type="text/css">
	.st0{fill:#58895E;}
	.st1{font-family:'Avenir-Medium';}
	.st2{font-size:30px;}
	.st3{fill:none;stroke:#6F9371;stroke-width:2;stroke-miterlimit:10;}
	.st4{fill:#6F9371;}
	.st5{fill:none;stroke:#6F9371;stroke-width:4;stroke-miterlimit:10;stroke-dasharray:2,14;}
</style>
<g id="Layer_1">
	<g id="Vf2tbv.tif">
		
			<image style="overflow:visible;" width="2507" height="1010" id="Layer_1_3_" xlink:href="5F1CB1F56B7B4D3C.png"  transform="matrix(0.5659 0 0 0.5659 150.5176 80.7229)">
		</image>
	</g>
	<text transform="matrix(1 0 0 1 435.2676 149.2229)"><tspan x="0" y="0" class="st0 st1 st2">Memorial Union</tspan><tspan x="0" y="36" class="st0 st1 st2">( Ice Cream )</tspan></text>
	<text transform="matrix(1 0 0 1 521.2676 513.2229)" class="st0 st1 st2">State Street</text>
	<text transform="matrix(1 0 0 1 316.2466 742.2454)" class="st0 st1 st2">Humanities</text>
	<text transform="matrix(1 0 0 1 873.2676 589.2229)"><tspan x="0" y="0" class="st0 st1 st2">Mysterious Basement</tspan><tspan x="0" y="36" class="st0 st1 st2">Arcade Game Store</tspan></text>
	<text transform="matrix(1 0 0 1 787.2676 241.2229)" class="st0 st1 st2">Hippy Store</text>
	<text transform="matrix(1 0 0 1 1259.2676 99.2229)" class="st0 st1 st2">Farmer’s Market</text>
	<text transform="matrix(1 0 0 1 1442.1766 654.2245)"><tspan x="0" y="0" class="st0 st1 st2">Free Cheese </tspan><tspan x="0" y="36" class="st0 st1 st2">Samples</tspan></text>
	<g>
		<g>
			<path class="st3" d="M491.6,211.2c0,0,10.4,48-49.1,49.2"/>
			<g>
				<polygon class="st4" points="446.4,256.9 443.1,260.3 446.6,263.6 443.7,263.7 440.3,260.4 443.6,256.9 				"/>
			</g>
		</g>
	</g>
	<g>
		<g>
			<line class="st3" x1="861.3" y1="263.2" x2="861.3" y2="312.9"/>
			<g>
				<polygon class="st4" points="857.9,309 861.3,312.3 864.7,309 864.7,311.8 861.3,315.2 857.9,311.8 				"/>
			</g>
		</g>
	</g>
	<g>
		<g>
			<line class="st3" x1="1013.3" y1="544.2" x2="1013.3" y2="494.5"/>
			<g>
				<polygon class="st4" points="1016.7,498.5 1013.3,495.1 1009.9,498.5 1009.9,495.6 1013.3,492.2 1016.7,495.6 				"/>
			</g>
		</g>
	</g>
	<path class="st3" d="M1363.3,123.2c0,0-8,26-58,26s-78,26-78,26"/>
	<path class="st3" d="M1363.3,123.2c0,0,8,26,58,26s78,26,78,26"/>
	<g>
		<g>
			<path class="st3" d="M1536.2,607.2c0,0,79.8-53.2-10-103.9"/>
			<g>
				<polygon class="st4" points="1531.3,502.5 1526.6,503.7 1527.9,508.3 1525.4,506.9 1524.2,502.2 1528.8,501 				"/>
			</g>
		</g>
	</g>
	<path class="st5" d="M317,322.3c0,0-17,68.9,73,68.9"/>
</g>
<g id="moveme">
	<g id="pqjaJ0.tif">
		
			<image style="overflow:visible;" width="372" height="413" id="Layer_1_4_" xlink:href="5F1CB1F56B7B4D3D.png"  transform="matrix(0.5988 0 0 0.5988 105.2256 523.2307)">
		</image>
	</g>
</g>
</svg>
