<?xml version="1.0" encoding="utf-8"?>
<!-- Generator: Adobe Illustrator 19.1.0, SVG Export Plug-In . SVG Version: 6.00 Build 0)  -->
<svg version="1.1" id="Layer_3" xmlns="http://www.w3.org/2000/svg" xmlns:xlink="http://www.w3.org/1999/xlink" x="0px" y="0px"
	 width="512px" height="512px" viewBox="247 -247 512 512" style="enable-background:new 247 -247 512 512;" xml:space="preserve">
<g>
	<path d="M503-247C361.6-247,247-132.4,247,9c0,141.4,114.6,256,256,256S759,150.4,759,9C759-132.4,644.4-247,503-247z M558.6,173.3
		c-12.5,10-26.4,14.4-41.9,13.1c-15.5-1.3-27.5-7.2-35.9-17.9c-8.4-10.7-10-23.1-4.6-37.3c2.5-5.9,7.5-12.2,15-18.8
		c7.5-6.6,14.4-10.8,20.8-12.6c5.5-1.6,14.6-0.8,27.2,2.2c19,3.9,30.6,13.8,34.8,29.6C578.1,147.3,573,161.2,558.6,173.3z
		 M598.7-38.7C592.7-21,582.1-5,567,9.3c-8.5,8.2-13.6,17.9-15.2,29.1c-1.1,7.7-2.7,12.9-4.7,15.6c-2,2.7-7.2,6.1-15.6,10.4
		c-12.2,5.7-24.3,7.7-36.3,5.9c-8.8-1.3-14.5-2.9-17.3-4.9c-2.8-2-6.7-7.9-11.8-17.7c-4.5-8.1-7.3-14.7-8.4-19.8
		c-1.1-5.1-1.1-11.1-0.1-18c0.6-3.9,1.6-7.7,3.2-11.6c1.6-3.9,3.6-7.8,6-11.8c2.4-4,5.1-7.9,8.1-11.8c3-3.9,6.4-7.4,10.1-10.6
		c3.7-3.2,7.6-6.3,11.7-9.2c5.9-4.3,10-10.6,12.2-18.9c2.2-8.3,2.1-16-0.3-23.1c-2.4-7-6.9-11-13.2-12c-4-0.6-9.4,1.6-16.2,6.5
		c-6.8,4.9-10.5,9.3-11.1,13.2c-0.9,6.2-5.4,10.3-13.4,12.2c-8,2-17.3,1.6-27.9-1.1c-11.4-2.8-19.3-6.5-23.8-10.8
		c-4.5-4.4-7.8-11.5-10-21.3c-1.5-6.5-1.8-11.4-0.9-14.6c0.9-3.2,4.1-8.6,9.7-16c6.5-8.5,14.6-15.2,24.3-20.1
		c9.7-4.9,22.7-8.7,38.9-11.5c22-3.1,49.7,2.5,83.1,16.8c11.9,4.9,22.7,12.7,32.3,23.3c9.6,10.7,16.3,21.8,19.9,33.3
		C605.3-73.2,604.8-56.3,598.7-38.7z"/>
</g>
</svg>
