<?xml version="1.0" encoding="utf-8"?>
<!-- Generator: Adobe Illustrator 19.1.0, SVG Export Plug-In . SVG Version: 6.00 Build 0)  -->
<svg version="1.1"
	 id="svg4619" xmlns:cc="http://creativecommons.org/ns#" xmlns:dc="http://purl.org/dc/elements/1.1/" xmlns:inkscape="http://www.inkscape.org/namespaces/inkscape" xmlns:rdf="http://www.w3.org/1999/02/22-rdf-syntax-ns#" xmlns:sodipodi="http://sodipodi.sourceforge.net/DTD/sodipodi-0.dtd" xmlns:svg="http://www.w3.org/2000/svg" sodipodi:docname="airport-15.svg" inkscape:version="0.91+devel+osxmenu r12911"
	 xmlns="http://www.w3.org/2000/svg" xmlns:xlink="http://www.w3.org/1999/xlink" x="0px" y="0px" width="14px" height="14px"
	 viewBox="-134 136.8 14 14" enable-background="new -134 136.8 14 14" xml:space="preserve">
<path id="rect6507_1_" fill="#010101" d="M-132.6,139.5c-0.2,0-0.4,0.2-0.4,0.4v6.4v1.7c0,0.3,0.2,0.4,0.4,0.4
	c0.2,0,0.4-0.2,0.4-0.4v-1.3h10.3v1.3c0,0.3,0.2,0.4,0.4,0.4c0.2,0,0.4-0.2,0.4-0.4v-1.7c0-0.3-0.2-0.4-0.4-0.4h-10.7v-6
	C-132.2,139.7-132.3,139.5-132.6,139.5z M-130.2,139.8c-0.6,0-1.2,0.6-1.2,1.3l0,0c0,0.7,0.6,1.3,1.2,1.3l0,0c0.6,0,1.2-0.6,1.2-1.3
	l0,0C-129,140.5-129.6,139.8-130.2,139.8L-130.2,139.8z M-127.4,140.7c-1.2,0-1.2,1.3-1.2,1.3v1.3h-2.4c-0.2,0-0.4,0.2-0.4,0.4v0.9
	c0,0.3,0.2,0.4,0.4,0.4h2.8h7.2v-2.1c0-2.1-2-2.1-2-2.1L-127.4,140.7L-127.4,140.7z"/>
</svg>
