<?xml version="1.0" encoding="utf-8"?>
<!-- Generator: Adobe Illustrator 19.1.0, SVG Export Plug-In . SVG Version: 6.00 Build 0)  -->
<svg version="1.1" id="Layer_1" xmlns="http://www.w3.org/2000/svg" xmlns:xlink="http://www.w3.org/1999/xlink" x="0px" y="0px"
	 width="32px" height="32px" viewBox="7 -7 32 32" style="enable-background:new 7 -7 32 32;" xml:space="preserve">
<style type="text/css">
	.st0{stroke:#000000;stroke-width:0.25;stroke-miterlimit:10;}
	.st1{fill:#0A0A0A;stroke:#000000;stroke-width:0.1;stroke-miterlimit:10;}
	.st2{fill:#0C0C0C;stroke:#000000;stroke-width:0.175;stroke-miterlimit:10;}
	.st3{fill:none;stroke:#000000;stroke-width:0.175;stroke-miterlimit:10;}
	.st4{fill:#0C0C0C;stroke:#000000;stroke-width:0.25;stroke-miterlimit:10;}
	.st5{fill:#0C0C0C;stroke:#000000;stroke-width:0.1;stroke-miterlimit:10;}
	.st6{fill:#0C0C0C;}
</style>
<polygon points="14.4,8.5 14.4,8.8 14.5,9 20.3,9 20.5,8.8 20.5,8.5 "/>
<path class="st0" d="M14.5,9v4.2h0.3V9C14.8,9,14.5,9.1,14.5,9z"/>
<path class="st0" d="M19.3,9v4.2h0.3V9C19.5,9,19.3,9.1,19.3,9z"/>
<polygon points="19.3,13.3 19.2,13.3 19.2,13.4 19.1,13.5 19.1,13.6 19.8,13.6 19.8,13.5 19.7,13.4 19.7,13.3 19.6,13.3 "/>
<polygon points="14.6,13.3 14.5,13.3 14.5,13.4 14.4,13.5 14.4,13.6 15,13.6 15,13.5 15,13.4 15,13.3 14.9,13.3 "/>
<path d="M14.4,13.6l0,4.4l0.1-0.4v-0.3l0.2-0.3v-0.3l0.3-0.4v-0.2l0.1-0.2v-2.3C15.1,13.6,14.3,13.6,14.4,13.6z"/>
<path d="M19.8,13.6v4.5l-0.1-0.5v-0.3l-0.2-0.3v-0.3l-0.3-0.4v-0.2L19,15.9v-2.3C19,13.6,19.8,13.6,19.8,13.6z"/>
<path d="M14.8,15.9H19v-0.4l-4.2,0C14.8,15.5,14.9,16,14.8,15.9z"/>
<line x1="15" y1="16.4" x2="19.2" y2="16.4"/>
<polyline class="st1" points="19.4,17.1 14.7,17.1 14.7,16.7 19.4,16.7 "/>
<polyline class="st1" points="14.4,17.7 19.7,17.7 19.6,17.4 14.5,17.4 "/>
<polyline class="st1" points="14.3,18.4 19.8,18.4 19.8,18.1 14.4,18.1 "/>
<polyline class="st1" points="14.8,16.4 19.1,16.4 19.1,16.3 15,16.3 "/>
<path d="M14.7,10.9c0,0,0.8-0.6,2.5-0.9s2.2-0.4,2.2-0.4V8.7h-4.7C14.7,8.7,14.7,10.9,14.7,10.9z"/>
<path d="M9.1,10.4C9.2,10.4,9.1,10.3,9.1,10.4l0.1-0.2h1.2c0,0,0,0.2,0.1,0.2c0.2,0,0.1-0.3,0.1-0.3l0,0V10l0-0.1l-1-0.1L8.8,10
	l0,0.1v0.1l0.1,0C8.9,10.2,8.8,10.4,9.1,10.4z"/>
<path d="M11.9,10.4C12,10.4,12,10.3,11.9,10.4l0.1-0.2h1.2c0,0,0,0.2,0.1,0.2s0.1-0.3,0.1-0.3l0,0V10l0-0.1l-1-0.1L11.7,10l0,0.1
	v0.1l0.1,0C11.7,10.2,11.7,10.4,11.9,10.4z"/>
<path d="M21.2,3.4c0.2,0,0.1-0.1,0.1-0.1V2.9h1.6c0,0,0,0.5,0.2,0.5c0.2,0,0.1-0.6,0.1-0.6l0-0.1V2.7l0.1-0.1l-1.3-0.2l-1.2,0.2
	l0,0.1v0.1L21,2.9C21,2.9,20.9,3.4,21.2,3.4z"/>
<path d="M25.4,3.4c0.2,0,0.1-0.1,0.1-0.1V2.9h1.6c0,0,0,0.5,0.2,0.5c0.2,0,0.1-0.6,0.1-0.6l0-0.1V2.7l0.1-0.1l-1.3-0.2L25,2.6l0,0.1
	v0.1l0.1,0.1C25.2,2.9,25,3.4,25.4,3.4z"/>
<path d="M21.2,10.8c0.2,0,0.1-0.1,0.1-0.1v-0.3H23c0,0,0,0.5,0.2,0.5c0.2,0,0.1-0.6,0.1-0.6l0-0.1v-0.1l0.1-0.1l-1.3-0.2L20.9,10
	l0,0.1v0.1l0.1,0.1C21,10.4,20.9,10.8,21.2,10.8z"/>
<path d="M25.4,10.8c0.2,0,0.1-0.1,0.1-0.1v-0.3h1.6c0,0,0,0.5,0.2,0.5c0.2,0,0.1-0.6,0.1-0.6l0-0.1v-0.1l0.1-0.1l-1.3-0.2L25,10
	l0,0.1v0.1l0.1,0.1C25.2,10.4,25,10.8,25.4,10.8z"/>
<path d="M21.2,5.5c0,0.1-0.1,0.2-0.1,0.2v0.9h2.1v-1c0,0-0.1-0.1-0.1-0.2s0.2,0,0.2,0s0,0.2,0.1,0.2c0.1,0,0.1,1.4,0.1,1.4h-2.5V5.7
	c0,0,0.1-0.1,0.1-0.2S21.2,5.2,21.2,5.5z"/>
<path d="M25.3,5.5c0,0.1-0.1,0.2-0.1,0.2v0.9h2.1v-1c0,0-0.1-0.1-0.1-0.2s0.2,0,0.2,0s0,0.2,0.1,0.2s0.1,1.4,0.1,1.4H25V5.7
	c0,0,0.1-0.1,0.1-0.2S25.3,5.2,25.3,5.5z"/>
<g>
	<rect x="14" y="7.8" width="6.6" height="0.4"/>
</g>
<g>
	<polygon points="29.4,5.5 29.4,2.2 29,2.2 29,6.6 	"/>
</g>
<g>
	<polygon points="14.4,5.5 14.4,2.2 14.1,2.2 14.1,6.6 	"/>
</g>
<g>
	<polygon points="8.2,11.9 8.2,8.6 8,8.6 8,13 	"/>
</g>
<g>
	<rect x="19.7" y="15.9" width="8.6" height="0.3"/>
</g>
<g>
	<rect x="27.2" y="3.7" width="0.1" height="2.2"/>
</g>
<g>
	<rect x="27.2" y="10.7" width="0.1" height="2.2"/>
</g>
<g>
	<rect x="23.1" y="10.7" width="0.1" height="2.2"/>
</g>
<g>
	<rect x="10.4" y="10.4" width="0.1" height="1.6"/>
</g>
<g>
	<rect x="13.3" y="10.3" width="0.1" height="1.7"/>
</g>
<g>
	<polygon points="16.7,11 16.7,11.6 16.8,12.7 16.8,11 	"/>
</g>
<g>
	<polygon points="18.4,11 18.4,11.6 18.5,12.7 18.5,11 	"/>
</g>
<g>
	<polygon points="16.7,13.3 16.7,13.7 16.8,14.8 16.8,13.3 	"/>
</g>
<g>
	<polygon points="18.4,13.3 18.4,13.7 18.5,14.8 18.5,13.3 	"/>
</g>
<g>
	<rect x="23" y="3.3" width="0.1" height="2.2"/>
</g>
<g>
	<path d="M16.9,3.4c0.2,0,0.1-0.1,0.1-0.1V2.9h1.6c0,0,0,0.5,0.2,0.5c0.2,0,0.1-0.6,0.1-0.6l0-0.1V2.7l0.1-0.1l-1.3-0.2l-1.2,0.2
		l0,0.1v0.1l0.1,0.1C16.7,2.9,16.6,3.4,16.9,3.4z"/>
	<path d="M17,5.5c0,0.1-0.1,0.2-0.1,0.2v0.9H19v-1c0,0-0.1-0.1-0.1-0.2s0.2,0,0.2,0s0,0.2,0.1,0.2s0.1,1.4,0.1,1.4h-2.5V5.7
		c0,0,0.1-0.1,0.1-0.2S17,5.2,17,5.5z"/>
	<g>
		<rect x="18.9" y="3.3" width="0.1" height="2.2"/>
	</g>
</g>
<path d="M21.2,13c0,0.1-0.1,0.2-0.1,0.2v0.9h2.1v-1c0,0-0.1-0.1-0.1-0.2c0-0.2,0.2,0,0.2,0s0,0.2,0.1,0.2s0.1,1.4,0.1,1.4h-2.5v-1.4
	c0,0,0.1-0.1,0.1-0.2C21.1,12.8,21.2,12.6,21.2,13z"/>
<path d="M25.4,13c0,0.1-0.1,0.2-0.1,0.2v0.9h2.1v-1c0,0-0.1-0.1-0.1-0.2c0-0.2,0.2,0,0.2,0s0,0.2,0.1,0.2s0.1,1.4,0.1,1.4h-2.5v-1.4
	c0,0,0.1-0.1,0.1-0.2C25.2,12.8,25.4,12.6,25.4,13z"/>
<path d="M9.2,11.9c0,0.1-0.1,0.2-0.1,0.2v0.6h1.4v-0.6c0,0-0.1,0-0.1-0.1s0.1,0,0.1,0s0,0.1,0.1,0.1c0.1,0,0,0.9,0,0.9H9V12
	c0,0,0.1,0,0.1-0.1C9.1,11.8,9.2,11.7,9.2,11.9z"/>
<path d="M12,11.9c0,0.1-0.1,0.2-0.1,0.2v0.6h1.4V12c0,0-0.1,0-0.1-0.1s0.1,0,0.1,0s0,0.1,0.1,0.1c0.1,0,0,0.9,0,0.9h-1.6V12
	c0,0,0.1,0,0.1-0.1C11.9,11.8,12,11.7,12,11.9z"/>
<g>
	<path d="M29.6,2.8c0.2,0,0.2-0.7,0.4-0.7l-7.9-4L13,2.4v1l9.3-4.2L29.6,2.8c0-0.2,0.1-0.3,0.2-0.4C30.2,1.8,29.2,2.8,29.6,2.8z"/>
	<path d="M28.4,16.6c-0.1,0-0.1,0-0.2,0c-0.5,0-0.8,0.4-1.4,0.1c-0.6-0.3-0.8-0.2-1.4,0.1s-0.6,0.4-1.2,0c-0.7-0.4-1,0-1.6,0.2
		c-0.6,0.2-0.8-0.4-1.1-0.4s-0.6,0.6-0.8,0.3s-1-0.3-1-0.3c0,0.4,0.1,1.4,0.1,1.4s1.4-0.3,1.8-0.3c0.4,0,0.8,0.3,2.2,0.3
		c1.4,0,1.6-0.4,3.8-0.4c0.6,0,1.8,0,2.2,0c0,0-0.5-0.4-0.5-0.4C28.9,16.9,28.5,16.9,28.4,16.6z"/>
</g>
<path d="M14.4,5.3H7.9L7,8.9h7.8c0,0,0-0.1-0.3-0.3c-0.3-0.2,0-0.5,0-0.5S14.4,5.4,14.4,5.3z"/>
<path d="M8.1,14.1l6.2,0l0,0.6H8.1c0,0,0,0,0-0.2C8.1,14.4,8.1,14.1,8.1,14.1"/>
<g>
	<g>
		<path class="st2" d="M34.7,16.5c-1,0.3-1.4,0-1.4,0.4c0,0.4-0.1,0.8-1.5,0.9c-1.5,0.1-0.2-1.6-0.9-1.3c-0.7,0.3-0.9-0.3-1.4,0
			c-0.2,0.1-0.4,0.4-0.5,0.7c0,0,0.1,0,0.1,0.1c0.5,0.2,0.4,0.7,1,0.9c0.6,0.2,1.2,0.1,1.1,0.6c-0.1,0.4,0,0,1.1-0.2
			c1.1-0.2,1,0.6,1.7-0.2c0.7-0.8,0.9-0.8,1.4-0.8c0.5,0,0.8-0.4,1-0.9c0.1-0.4,0.5-0.9,0.8-1.3c-0.4-0.1-0.8-0.2-1.3-0.2
			C34,15,35.7,16.1,34.7,16.5z"/>
		<path class="st2" d="M35.1,12.1c-0.3-0.6-0.1-1.3-0.3-0.6c-0.3,0.7-0.4,1.7-1.5,1.7c-0.3,0-0.5-0.1-0.6-0.1c0,0.3-0.2,0.5-0.5,0.2
			c-0.7-0.6-1.1-0.5-1.1-0.5s0.4,1.1,0.7,1.1c0.3,0-0.2-0.3,0.5-0.3c0.7,0,0.4,0.5,1,0.5c0.5,0,1-0.8,1.4-0.8c0.4,0,0.4,0.8,0.9,0.5
			c0.4-0.2,1-1,1.6-1.4c0-0.1,0-0.1,0-0.2c0-0.2,0.1-0.4,0-0.6c-0.2,0.1-0.3,0.2-0.5,0.3C36.1,12.2,35.5,12.7,35.1,12.1z"/>
		<path class="st3" d="M32.7,12.5c0,0-0.2,0.4,0,0.6C32.8,12.8,32.7,12.5,32.7,12.5z"/>
	</g>
	<path class="st4" d="M29.6,15.2c0,0-0.4,0.6,0.1,0.7c0.6,0,0.9-0.5,0.9-0.5S29.6,15.9,29.6,15.2z"/>
	<path class="st4" d="M34.1,2.2c0,0,0.1,0.5,0.6,0.4c0.6-0.1,0.4-0.4,0.4-0.4S34.2,2.6,34.1,2.2z"/>
	<path class="st4" d="M30.3,10.4c0,0,0.4,0.3,0.9,0.1S31,11.1,30.6,11C30.1,11,30.3,10.4,30.3,10.4z"/>
</g>
<path d="M21.6,0v1H23V0C23,0,21.6,0,21.6,0z"/>
<path d="M15.5,12.9c0,0,0.7-0.6,0.7-1.1c0-0.5,0.6-0.7,0.6-0.7l-1.2,0L15.5,12.9z"/>
<path d="M15.5,14.8c0,0,0.2-0.5,0.2-0.9s1-0.6,1-0.6l-1.2,0L15.5,14.8z"/>
<path d="M17.2,14.8c0,0,0.2-0.5,0.2-0.9s1-0.6,1-0.6l-1.2,0L17.2,14.8z"/>
<path d="M17.2,12.9c0,0,0.1-0.6,0.1-1c0-0.4,0.1-0.6,0.4-0.7s0.7-0.2,0.7-0.2l-1.2,0C17.2,11,17.2,12.9,17.2,12.9z"/>
<polygon points="8.1,14.6 14.5,16.6 14.6,14 "/>
<path d="M30,17.6c0,0-2.8,0.7-2.2,1.2s3.2,0.8,6.1,0.8s7.2-2,3.9-2S33,17.8,33,17.8S32.7,18.5,30,17.6z"/>
<path d="M26.4,0.5v-1.2h1.8v2.3C28.2,1.5,26.4,0.5,26.4,0.5z"/>
<path d="M26.1-1.5h1.1v-0.2h-1.1C26.1-1.7,26.1-1.4,26.1-1.5z"/>
<path class="st5" d="M27.3-1.5h1.1v-0.2h-1.1C27.3-1.7,27.3-1.4,27.3-1.5z"/>
<g>
	<path d="M27.6-0.8c-0.1,0.2-0.2,0.4-0.2,0.6h0.4v0.4h-0.5c-0.1,0.3-0.2,0.6-0.4,0.6c-0.5,0,1.3,0.7,1.3,0.7v-2.3
		C28.2-0.8,27.8-1,27.6-0.8z"/>
</g>
<g>
	<rect x="27.6" y="-1.1" class="st5" width="0.9" height="0.2"/>
	<path d="M26-0.9h1.6v-0.2H26C26-1.1,26-0.8,26-0.9z"/>
	<path d="M27.9-1.4h-2c0,0,0,0.4,0,0.3h1.7h0.3V-1.4z"/>
	<rect x="27.9" y="-1.4" class="st5" width="0.7" height="0.3"/>
</g>
<path class="st4" d="M32.6,1.1c0,0,0.2,0.4,0.6,0.2c0.3-0.1,0.3-0.5,0.3-0.5S33.1,1,32.9,0.4C32.7-0.2,32.8-1,32.8-1
	s-0.1,0.8-0.1,1.2C32.5,0.5,32.6,1.1,32.6,1.1z"/>
<path class="st6" d="M36.5,10.7c0,0,0.3,0.2,0.6,0.1c0.4-0.1,0.4-0.3,0.4-0.3s-0.5,0.1-0.7-0.3c-0.2-0.4-0.2-0.9-0.2-0.9
	s-0.1,0.5-0.2,0.7C36.4,10.4,36.5,10.7,36.5,10.7z"/>
<path class="st6" d="M37.9,13c-0.6,0-0.9,0.7-0.6,0.9c0.3,0.3,0.5,0.3,0.4,0.5c-0.1,0.2,0.3-0.4,0.3-0.4s-0.6,0.1-0.1-0.4
	C38.4,13.3,38.4,13,37.9,13z"/>
<path d="M36.6,15.5c0,0,0.4-0.2,0.9-0.3s0.2-0.8,0.2-0.8s-0.5-0.6,0-1s0.2-0.6,0.1-0.8s-0.2,0.3,0-0.6s0.9-0.9,0.2-1.8
	s-0.2-1-0.2-1.2s-0.5-1.2-0.5-1.2s0.4,0.9,0,1.4s-0.2,0.6-0.2,0.6s0.8,0.2,0.7,0.7s-0.4,0.7-0.4,0.7s0,0.3-0.3,0.6s0.3-0.1,0.1,0.8
	s0.1,0.9-0.4,1s0.5,0.1,0.2,0.6s0.8,0.4,0.1,0.6s-0.3,0.6-0.6,0.6S36.6,15.5,36.6,15.5z"/>
<path d="M28.3,16c0,0-0.5-0.2,0.1-0.7s0.4-0.5,0-0.4s-0.4,0.3,0.4-0.6s0.3-0.8-0.2-0.6c-0.6,0.2,0.4,0,0.6-0.7s0.3-1.4-0.4-0.8
	s0.2-0.1,0.2-0.8s-0.2,0.6-0.6,0.8s-0.8,0-0.8,0s0.3,1,0.8,0.6s0.7,0.2,0.4,0.3s-0.3,0.4-0.6,0.4s-0.1,0.3-0.6,0.4s0.9,0.4,1,0.2
	s-0.6,1.1-1.4,0.9s0.6,0.4,0.6,0.4s-0.6,0.6-1,0.3S26.6,16.2,28.3,16z"/>
<path d="M29.2,7.9c0,0-0.3-0.3,0.3-0.7s0.4-0.4,0.1-0.4c-0.3,0-0.3,0.2,0.4-0.5c0.8-0.7,0.4-0.7,0.1-0.7c-0.4,0,0.3,0.1,0.6-0.6
	s0.6-1.3,0-0.9c-0.6,0.4,0.2,0,0.4-0.8S30.7,4,30.4,4c-0.3,0-0.5-0.2-0.5-0.2s-0.1,1,0.4,0.7c0.4-0.3,0.4,0.3,0.2,0.4
	c-0.2,0.1-0.3,0.3-0.5,0.3s-0.2,0.3-0.5,0.3C29.1,5.4,29.9,6,30,5.9c0.1-0.1-0.7,1-1.2,0.7s0.3,0.5,0.3,0.5s-0.5,0.5-0.8,0.1
	S28.1,7.7,29.2,7.9z"/>
<path d="M35.4,6.6c0,0,0.6-0.4-0.3-0.7c-0.9-0.3-0.6-0.4,0-0.4s0.5,0.2-0.6-0.5c-1.2-0.7-0.6-0.7,0.1-0.7c0.8,0-0.5,0.1-0.8-0.6
	c-0.3-0.7-0.6-1.4,0.4-0.9c1,0.4-0.3,0-0.4-0.8s0.3,0.6,0.9,0.6s0.9-0.2,0.9-0.2s-0.2,1.1-0.9,0.8s-0.8,0.4-0.4,0.4s0.5,0.3,0.8,0.3
	c0.3-0.1,0.2,0.3,0.8,0.3c0.6-0.1-1,0.6-1.1,0.4c-0.1-0.1,1,1,1.9,0.7c0.9-0.4-0.7,0.6-0.7,0.6s0.8,0.5,1.3,0.1
	C37.7,5.3,37.5,6.4,35.4,6.6z"/>
<path class="st2" d="M35.6,10.1c-0.5,0,0.5,0.7,0,0.7c-0.5,0-1.3,0-1.4-0.2c-0.1-0.2,0.3,0.7,0.8,0.7c0.6,0,1.1,0.3,1.1,0
	c0-0.3-0.1-0.4,0.4-0.4c-0.1-0.2-0.1-0.4,0.1-0.4c0.2,0,0.3-0.3-0.2-0.4c-0.6-0.2-0.4-0.7-0.4-0.9c0,0,0-0.1,0-0.1
	C35.6,9.5,35.8,10.1,35.6,10.1z"/>
<path class="st4" d="M33.8,5.7c0,0,0.1,0.4,0.6,0.3c0.5-0.1,0.3-0.4,0.3-0.4S33.9,6.1,33.8,5.7z"/>
<path class="st2" d="M34.1,7.5c0.1,0.2,0.4,0.8-0.6,0.7c-1.3,0-1.3,0-1.3,0s1,1,1.5,0.9c0.6-0.2,0.5-0.5,0.9-0.5
	c0.4,0,1.1,0.1,1.4-0.1c0.2-0.2,0.5-0.3,1.5-0.2c0-0.2-0.1-0.3-0.4-0.4c-0.4-0.1-0.4-0.3-0.3-0.5c-0.4,0.3-1.1,0.6-1.7,0.6
	C34.5,7.9,34.2,7.6,34.1,7.5z"/>
<path d="M34.8,5.6c0,0,1.4,1.2-0.2,1.2c-1.6,0,0,1-1.1,1c-1.1,0,0.3,0.6,0.3,0.6s1.7,0.5,0.7,1c-1,0.6,0.5,2-0.9,1.1
	c-1.3-0.9-1.3,0-1.3,0s2.4,1.5,0.8,0.8c-1.5-0.7,0,2.5-1.3,0.9c-1.4-1.5,0,1,0,1s3.9,1.2,1.7,1.6s-0.5,1.8-1.3,1.3
	c-0.7-0.5,1.6,1.2,1.6,1.2s2.2-1,2.6-1.7c0.4-0.6,1.1-0.9,1.1-0.9l-0.1-1.7l0.2-1.5c0,0,1.2-0.8,0.3-1.5S37.6,9,37.6,9s0.2-1-0.9-1
	c-1.2,0.1-0.2-1.1-0.2-1.1s0-0.7-0.9-0.7S34.8,5.6,34.8,5.6z"/>
<path d="M29,2.2l-2.9,7.9l1.2,0L27.3,13l0.1,0.2l0.2,1.4l-2.4-0.1l0-1l-1.1,2.6l3.6,0l0.2-1.2l1-1l-0.7,0l0.8-0.6l0.1-1l-0.9,0.3
	l0.2-0.5c0,0,0.6-0.1,0.6-1.1s-0.9,0-1.1-0.3s0.5-0.1,0.8-0.8c0.3-0.7-0.2-0.4-0.6-0.4c-0.5,0,0.4-0.2,0.7-0.7c0.3-0.5-0.4,0-0.7,0
	c-0.3,0,1-0.5,1.2-1.2s0-0.7,0-0.7l0.2-0.3l0.1-4.4H29z"/>
<path class="st4" d="M30.1,7.6c0,0-0.6,0.5-0.1,0.7C30.6,8.4,31,8,31,8S29.9,8.2,30.1,7.6z"/>
<path d="M17.4,3.4v1.1h1V3.3h-1C17.4,3.3,17.4,3.4,17.4,3.4z"/>
<path d="M17.3,5.2v0.9h1V4.9h-1C17.3,4.9,17.3,5.2,17.3,5.2z"/>
<path d="M21.6,3.4v1.1h1V3.3h-1C21.6,3.3,21.6,3.4,21.6,3.4z"/>
<path d="M21.5,5.2v0.9h1V4.9h-1C21.5,4.9,21.5,5.2,21.5,5.2z"/>
<path d="M25.8,3.4v1.1h1V3.3h-1C25.8,3.3,25.8,3.4,25.8,3.4z"/>
<path d="M25.7,5.2v0.9h1V4.9h-1C25.7,4.9,25.7,5.2,25.7,5.2z"/>
<path d="M21.6,11V12h1v-1.2h-1C21.6,10.8,21.6,10.9,21.6,11z"/>
<path d="M21.5,12.7v0.9h1v-1.3h-1C21.5,12.4,21.5,12.7,21.5,12.7z"/>
<path d="M12.3,10.6v0.7h0.7v-0.8L12.3,10.6C12.3,10.5,12.3,10.6,12.3,10.6z"/>
<path d="M12.2,11.8v0.6h0.7v-0.8h-0.7C12.2,11.5,12.2,11.7,12.2,11.8z"/>
<path d="M9.4,10.6v0.7h0.7v-0.8L9.4,10.6C9.4,10.5,9.4,10.6,9.4,10.6z"/>
<path d="M9.4,11.8v0.6h0.7v-0.8H9.4C9.4,11.5,9.4,11.7,9.4,11.8z"/>
<path d="M25.8,11V12h1v-1.2h-1C25.8,10.8,25.8,10.9,25.8,11z"/>
<path d="M25.7,12.7v0.9h1v-1.3h-1C25.7,12.4,25.7,12.7,25.7,12.7z"/>
</svg>
