<?xml version="1.0" encoding="utf-8"?>
<!-- Generator: Adobe Illustrator 21.1.0, SVG Export Plug-In . SVG Version: 6.00 Build 0)  -->
<svg version="1.1" id="Layer_1" xmlns="http://www.w3.org/2000/svg" xmlns:xlink="http://www.w3.org/1999/xlink" x="0px" y="0px"
	 width="100px" height="100px" viewBox="0 0 100 100" style="enable-background:new 0 0 100 100;" xml:space="preserve">
<path d="M97.6,35.5C97.6,50.1,85.8,62,71.1,62c-14.6,0-26.5-11.9-26.5-26.5S56.5,9,71.1,9C85.8,9,97.6,20.9,97.6,35.5z"/>
<path d="M41.1,23.2c-5,9.2-1.6,19.7-1.6,19.7l-2.7,1.9c0,0,0.4,3.8,2.9,7.9c2.6,4.1,4.8,6.2,4.8,6.2l-6.8,6.5L33.5,64l-27,27.8
	l-5.4-2.9l8.5-21.6L1.1,46.4L9,26L1.1,4.1L22.7,12L44,4.1l9.9,3.7h-0.2l1.1,0.4C54.8,8.2,46.1,14,41.1,23.2z"/>
<path d="M95.1,67.9L86.6,89l-21.3,8.2h-0.1l-6.4-2.4l-14.7-5.7l-21.7,8.5l-2.1-1.5l20.4-20.2l1.2-1.3l0.9-0.8l22.3,3.8l-22.4-3.9
	l0.2-0.2l-0.8-4.7l6.1-6.3l13.4,7.1l2.5-2.8c0,0,8.2,2.8,16.5-0.4c8.1-3.1,11.1-6,11.3-6.2L95.1,67.9z"/>
</svg>
