<?xml version="1.0" encoding="utf-8"?>
<!-- Generator: Adobe Illustrator 19.1.0, SVG Export Plug-In . SVG Version: 6.00 Build 0)  -->
<svg version="1.1"
	 id="svg4619" xmlns:cc="http://creativecommons.org/ns#" xmlns:dc="http://purl.org/dc/elements/1.1/" xmlns:inkscape="http://www.inkscape.org/namespaces/inkscape" xmlns:rdf="http://www.w3.org/1999/02/22-rdf-syntax-ns#" xmlns:sodipodi="http://sodipodi.sourceforge.net/DTD/sodipodi-0.dtd" xmlns:svg="http://www.w3.org/2000/svg" sodipodi:docname="airport-15.svg" inkscape:version="0.91+devel+osxmenu r12911"
	 xmlns="http://www.w3.org/2000/svg" xmlns:xlink="http://www.w3.org/1999/xlink" x="0px" y="0px" width="17.2px" height="17.2px"
	 viewBox="-134 136.8 17.2 17.2" enable-background="new -134 136.8 17.2 17.2" xml:space="preserve">
<path id="path8043" d="M-128.9,138c-1.4,0-3,0.7-3,2.7v5.5v3.8c0,0,0,1,1,1v1c0,0,0,1,1,1s1-1,1-1v-1h7v1c0,0,0,1,1,1s1-1,1-1v-1
	c0,0,1,0,1-1v-9.3c0-2-1.2-2.7-2.6-2.7H-128.9z M-128.6,139.5h6.5c0.1,0,0.2,0.1,0.2,0.2s-0.1,0.2-0.2,0.2h-6.5
	c-0.1,0-0.2-0.1-0.2-0.2S-128.8,139.5-128.6,139.5z M-129.9,141h9c1,0,1,1,1,1v3c0,0,0,1-1,1h-9c-1,0-1-1-1-1v-3
	C-130.9,142-130.9,141-129.9,141z M-129.9,148c0.6,0,1,0.4,1,1s-0.4,1-1,1s-1-0.4-1-1S-130.4,148-129.9,148z M-120.9,148
	c0.6,0,1,0.4,1,1s-0.4,1-1,1s-1-0.4-1-1S-121.4,148-120.9,148z"/>
</svg>
