<?xml version="1.0" encoding="utf-8"?>
<!-- Generator: Adobe Illustrator 19.1.0, SVG Export Plug-In . SVG Version: 6.00 Build 0)  -->
<svg version="1.1"
	 id="svg4619" xmlns:cc="http://creativecommons.org/ns#" xmlns:dc="http://purl.org/dc/elements/1.1/" xmlns:inkscape="http://www.inkscape.org/namespaces/inkscape" xmlns:rdf="http://www.w3.org/1999/02/22-rdf-syntax-ns#" xmlns:sodipodi="http://sodipodi.sourceforge.net/DTD/sodipodi-0.dtd" xmlns:svg="http://www.w3.org/2000/svg" sodipodi:docname="airport-15.svg" inkscape:version="0.91+devel+osxmenu r12911"
	 xmlns="http://www.w3.org/2000/svg" xmlns:xlink="http://www.w3.org/1999/xlink" x="0px" y="0px" width="17.2px" height="17.2px"
	 viewBox="-134 136.8 17.2 17.2" enable-background="new -134 136.8 17.2 17.2" xml:space="preserve">
<circle cx="-131.8" cy="138" r="1.2"/>
<path d="M-131.1,140.5v11.8c0,0.3-0.3,0.6-0.6,0.6c-0.3,0-0.6-0.3-0.6-0.6v-11.8c0-0.3,0.3-0.6,0.6-0.6
	C-131.4,139.9-131.1,140.2-131.1,140.5z"/>
<g>
	<path d="M-122.3,147.4c-1.8,0-2.5-1.6-4.3-1.6c-1,0.2-1.8,0.7-2.4,1.5c-0.1,0.1-0.2,0.1-0.4,0.1c-0.3,0-0.5-0.3-0.5-0.6v1.1
		c0,0.3,0.2,0.6,0.5,0.6c0.1,0,0.3,0,0.4-0.1c0.6-0.8,1.4-1.3,2.4-1.5c1.8,0,2.4,1.6,4.3,1.6c1.2-0.1,2.4-0.6,3.4-1.4
		c0.2-0.1,0.3-0.3,0.2-0.5v-1.1c0,0.2-0.1,0.4-0.2,0.5C-119.9,146.8-121.1,147.3-122.3,147.4z"/>
	<path d="M-122.3,142.4c1.2-0.1,2.4-0.6,3.4-1.4c0.2-0.1,0.2-0.3,0.2-0.5v-1.2c0,0.2-0.1,0.4-0.2,0.5c-1,0.8-2.2,1.2-3.4,1.4
		c-1.4,0-2.1-0.9-3.1-1.3v-0.9c1,0.4,1.7,1.3,3.1,1.3c1.2-0.1,2.4-0.6,3.4-1.4c0.1-0.1,0.2-0.3,0.2-0.4c0-0.2-0.2-0.4-0.5-0.4
		c-0.1,0-0.2,0-0.3,0c-0.8,0.6-1.8,1.1-2.9,1.3c-1.4,0-2.1-0.7-3.1-1.1c-0.3-0.1-0.7-0.2-1.2-0.2c-1.4,0-2.5,1.5-3,2.1
		c0,0-0.1,0.1-0.1,0.1c-0.1,0.1-0.1,0.2-0.1,0.3c0,0,0,0,0,0v1.1c0,0,0,0,0,0v0.9c0,0,0,0,0,0v1.1c0,0.3,0.2,0.6,0.5,0.6
		c0.1,0,0.3,0,0.4-0.1c0.6-0.8,1.4-1.3,2.4-1.5c1.8,0,2.4,1.6,4.3,1.6c1.2-0.1,2.4-0.6,3.4-1.4c0.2-0.1,0.2-0.3,0.2-0.5v-1.1
		c0,0.2-0.1,0.4-0.2,0.5c-1,0.8-2.2,1.2-3.4,1.4c-1.4,0-2.1-0.9-3.1-1.3v-0.9C-124.4,141.5-123.7,142.4-122.3,142.4z M-128.9,140.7
		c0.1,0,0.1,0,0.1,0c0.1,0,0.2,0.1,0.2,0.2c0,0.2-0.1,0.3-0.3,0.3c-0.1,0-0.2-0.1-0.2-0.2c0,0,0-0.1,0-0.1
		C-129.2,140.9-129,140.7-128.9,140.7z M-128.9,142.8c-0.2,0-0.3-0.1-0.3-0.3c0-0.1,0-0.1,0.1-0.2c0,0,0.1-0.1,0.1-0.1
		c0,0,0.1,0,0.1,0c0.2,0,0.3,0.1,0.3,0.3C-128.6,142.6-128.7,142.8-128.9,142.8z M-126.4,138.8c0.2,0,0.3,0.1,0.3,0.3
		c0,0.2-0.1,0.3-0.3,0.3c-0.2,0-0.3-0.1-0.3-0.3C-126.8,138.9-126.6,138.8-126.4,138.8z M-127.7,139.5c0.2,0,0.3,0.1,0.3,0.3
		c0,0,0,0,0,0.1c0,0.1-0.1,0.2-0.3,0.2c0,0-0.1,0-0.1,0c-0.1,0-0.2-0.1-0.2-0.3C-128,139.6-127.9,139.5-127.7,139.5z M-127.7,141.5
		c-0.1,0-0.2-0.1-0.3-0.2c0,0,0,0,0-0.1c0-0.2,0.1-0.3,0.3-0.3c0.1,0,0.2,0,0.2,0.1c0,0,0.1,0.1,0.1,0.2
		C-127.4,141.4-127.5,141.5-127.7,141.5z M-126.4,140c0.2,0,0.3,0.1,0.3,0.3c0,0.2-0.1,0.3-0.3,0.3c-0.2,0-0.3-0.1-0.3-0.3
		C-126.8,140.1-126.6,140-126.4,140z M-126.4,142.1c-0.2,0-0.3-0.1-0.3-0.3c0,0,0,0,0,0c0-0.1,0.1-0.3,0.3-0.3
		c0.2,0,0.3,0.1,0.3,0.3C-126.1,142-126.3,142.1-126.4,142.1z"/>
	<path d="M-122.3,145.4c-1.8,0-2.5-1.6-4.3-1.6c-1,0.2-1.8,0.7-2.4,1.5c-0.1,0.1-0.2,0.1-0.4,0.1c-0.3,0-0.5-0.3-0.5-0.6v1.1
		c0,0.3,0.2,0.6,0.5,0.6c0.1,0,0.3,0,0.4-0.1c0.6-0.8,1.4-1.3,2.4-1.5c1.8,0,2.4,1.6,4.3,1.6c1.2-0.1,2.4-0.6,3.4-1.4
		c0.2-0.1,0.3-0.3,0.2-0.5v-1.1c0,0.2-0.1,0.4-0.2,0.5C-119.9,144.8-121.1,145.2-122.3,145.4z"/>
	<path d="M-129,142.2C-129,142.2-129,142.2-129,142.2c-0.1,0.1-0.1,0.1-0.1,0.1C-129.1,142.3-129,142.2-129,142.2z"/>
</g>
</svg>
