<?xml version="1.0" encoding="utf-8"?>
<!-- Generator: Adobe Illustrator 17.0.2, SVG Export Plug-In . SVG Version: 6.00 Build 0)  -->
<!DOCTYPE svg PUBLIC "-//W3C//DTD SVG 1.1//EN" "http://www.w3.org/Graphics/SVG/1.1/DTD/svg11.dtd">
<svg version="1.1" xmlns="http://www.w3.org/2000/svg" xmlns:xlink="http://www.w3.org/1999/xlink" x="0px" y="0px" width="72px"
	 height="72px" viewBox="0 0 72 72" enable-background="new 0 0 72 72" xml:space="preserve">
<g id="Food">
	
		<circle id="fCircle" opacity="0.4" fill="#844A2D" stroke="#7C0F0F" stroke-miterlimit="10" enable-background="new    " cx="36.518" cy="36.302" r="35.051"/>
</g>
<g id="Layer_2">
	<path fill="#844A2D" stroke="#7C0F0F" stroke-miterlimit="10" d="M26.161,18.096c0.035-1.075,3.126-3.787,3.126-3.787
		s17.947-3.475,22.461,5.11s5.844,14.471,5.721,15.78c-0.123,1.309-2.521,3.244-2.851,3.213c-0.33-0.031-14.466,4.162-19.664-1.847
		S26.103,19.891,26.161,18.096z"/>
	<path fill="#844A2D" stroke="#7C0F0F" stroke-miterlimit="10" d="M41.203,28.074c0.818,0.697,1.011,4.806,1.011,4.806
		s-8.475,16.198-18.001,14.372S9.255,42.796,8.309,41.884s-0.964-3.994-0.734-4.232c0.23-0.238,5.767-13.904,13.706-14.221
		C29.22,23.115,39.835,26.909,41.203,28.074z"/>
	<path fill="#844A2D" stroke="#7C0F0F" stroke-miterlimit="10" d="M62.811,36.619c0.915,0.865,0.665,5.866,0.665,5.866
		S51.24,62.009,39.851,59.59c-11.389-2.419-17.696-5.731-18.741-6.86c-1.045-1.129-0.703-4.878-0.395-5.163
		c0.308-0.285,8.666-16.791,18.375-17.01C48.799,30.338,61.283,35.175,62.811,36.619z"/>
	<path fill="#844A2D" stroke="#7C0F0F" stroke-miterlimit="10" d="M24.108,49.59c3.71-3.003,18.724-15.192,34.093-12.365"/>
	<path fill="#844A2D" stroke="#7C0F0F" stroke-miterlimit="10" d="M39.299,52.063c3.18-2.473,12.719-7.419,16.251-7.242"/>
	<path fill="#844A2D" stroke="#7C0F0F" stroke-miterlimit="10" d="M13.155,38.461c3.356-4.416,7.596-14.132,22.257-7.066"/>
	<path fill="#844A2D" stroke="#7C0F0F" stroke-miterlimit="10" d="M35.943,17.617c1.776,0.395,9.75,0.883,12.719,4.593
		c2.346,2.931,3.299,9.039,3.533,10.599"/>
</g>
</svg>
