<?xml version="1.0" encoding="utf-8"?>
<!-- Generator: Adobe Illustrator 16.0.0, SVG Export Plug-In . SVG Version: 6.00 Build 0)  -->
<!DOCTYPE svg PUBLIC "-//W3C//DTD SVG 1.1//EN" "http://www.w3.org/Graphics/SVG/1.1/DTD/svg11.dtd">
<svg version="1.1" id="Food" xmlns="http://www.w3.org/2000/svg" xmlns:xlink="http://www.w3.org/1999/xlink" x="0px" y="0px"
	 width="72px" height="72px" viewBox="0 0 72 72" enable-background="new 0 0 72 72" xml:space="preserve">
<circle id="fCircle" opacity="0.4" fill="#E47676" stroke="#7C0F0F" stroke-miterlimit="10" enable-background="new    " cx="36.518" cy="36.302" r="35.051"/>
<path fill="#E47676" stroke="#7C0F0F" stroke-miterlimit="10" d="M39.789,10.965l4.823,1.252l0.856,2.157
	c0,0-2.824,3.046-2.593,4.109c0.229,1.062,0.526,2.29,0.526,2.29s4.632-3.64,11.437,3.137c4.616,4.602,5.337,9.312,3.591,13.37
	c-1.748,4.059-13.283,27.005-23.546,22.585c-10.264-4.422-7.555-7.519-7.555-7.519s-2.476,3.197-8.508,0.602
	c-6.031-2.6-5.101-22.959-0.105-34.558c4.995-11.599,17.948-4.645,19.488-1.508c1.536,3.137,1.356,0.996,1.356,0.996l0.671-3.149
	L39.789,10.965z"/>
</svg>
