<?xml version="1.0" encoding="utf-8"?>
<!-- Generator: Adobe Illustrator 16.0.0, SVG Export Plug-In . SVG Version: 6.00 Build 0)  -->
<!DOCTYPE svg PUBLIC "-//W3C//DTD SVG 1.1//EN" "http://www.w3.org/Graphics/SVG/1.1/DTD/svg11.dtd">
<svg version="1.1" id="Food" xmlns="http://www.w3.org/2000/svg" xmlns:xlink="http://www.w3.org/1999/xlink" x="0px" y="0px"
	 width="72px" height="72px" viewBox="0 0 72 72" enable-background="new 0 0 72 72" xml:space="preserve">
<circle id="fCircle" opacity="0.4" fill="#7066ED" stroke="#114977" stroke-miterlimit="10" enable-background="new    " cx="36.518" cy="36.302" r="35.051"/>
<path fill="#656B88" d="M55.636,47.058c0.615,6.89-4.578,13.048-11.6,13.746c-7.02,0.697-13.208-4.322-13.826-11.215
	c-0.617-6.895,4.576-13.048,11.597-13.748C48.827,35.142,55.019,40.164,55.636,47.058"/>
<path fill="none" stroke="#1B2E44" stroke-miterlimit="10" d="M47.827,42.786c0.148,1.695-1.588,3.255-3.885,3.481
	c-2.295,0.228-4.279-0.96-4.43-2.652c-0.15-1.695,1.584-3.255,3.883-3.482C45.69,39.902,47.673,41.091,47.827,42.786z"/>
<path fill="#656B88" d="M45.962,19.172c-1.244,3.4-5.104,5.196-8.615,4.013c-3.511-1.187-5.35-4.904-4.107-8.304
	c1.245-3.401,5.101-5.197,8.615-4.012C45.366,12.054,47.204,15.771,45.962,19.172"/>
<path fill="none" stroke="#1B2E44" stroke-miterlimit="10" d="M43.183,15.46c-0.307,0.836-1.486,1.199-2.635,0.812
	s-1.832-1.379-1.525-2.214c0.307-0.837,1.484-1.201,2.633-0.812C42.804,13.634,43.487,14.624,43.183,15.46z"/>
<path fill="#656B88" d="M35.363,18.407c1.021,4.893-2.202,9.729-7.194,10.804c-4.993,1.069-9.865-2.025-10.886-6.918
	c-1.02-4.896,2.201-9.732,7.195-10.805C29.47,10.415,34.343,13.513,35.363,18.407"/>
<path fill="none" stroke="#1B2E44" stroke-miterlimit="10" d="M29.391,15.978c0.25,1.206-0.871,2.463-2.505,2.813
	c-1.631,0.352-3.159-0.341-3.406-1.541c-0.253-1.203,0.865-2.463,2.501-2.814C27.612,14.085,29.138,14.775,29.391,15.978z"/>
<path fill="#656B88" d="M48.411,31.881c-2.352,5.156-8.609,7.494-13.976,5.224c-5.366-2.275-7.813-8.295-5.459-13.454
	c2.353-5.16,8.609-7.497,13.977-5.224C48.319,20.698,50.761,26.722,48.411,31.881"/>
<path fill="none" stroke="#1B2E44" stroke-miterlimit="10" d="M44.493,25.752c-0.58,1.269-2.471,1.694-4.225,0.949
	c-1.755-0.742-2.709-2.374-2.131-3.638c0.576-1.27,2.467-1.696,4.225-0.952C44.116,22.855,45.069,24.483,44.493,25.752z"/>
<path fill="#656B88" d="M24.827,36.971c1.055,5.582-2.713,11.017-8.412,12.135c-5.703,1.115-11.18-2.504-12.235-8.089
	c-1.056-5.589,2.709-11.02,8.413-12.138C18.291,27.761,23.768,31.384,24.827,36.971"/>
<path fill="none" stroke="#1B2E44" stroke-miterlimit="10" d="M18.082,34.085c0.258,1.374-1.042,2.782-2.908,3.147
	c-1.864,0.365-3.585-0.452-3.842-1.822c-0.262-1.374,1.038-2.783,2.904-3.15C16.1,31.896,17.82,32.711,18.082,34.085z"/>
<path fill="#656B88" d="M67.569,31.256c-1.322,3.456-5.307,5.227-8.898,3.957c-3.588-1.272-5.428-5.105-4.104-8.562
	c1.324-3.458,5.305-5.23,8.896-3.958C67.054,23.963,68.892,27.797,67.569,31.256"/>
<path fill="none" stroke="#1B2E44" stroke-miterlimit="10" d="M64.767,27.412c-0.328,0.851-1.543,1.202-2.717,0.785
	c-1.174-0.415-1.859-1.442-1.535-2.289c0.324-0.851,1.539-1.203,2.715-0.787C64.401,25.537,65.089,26.561,64.767,27.412z"/>
</svg>
