<?xml version="1.0" encoding="utf-8"?>
<!-- Generator: Adobe Illustrator 17.0.2, SVG Export Plug-In . SVG Version: 6.00 Build 0)  -->
<!DOCTYPE svg PUBLIC "-//W3C//DTD SVG 1.1//EN" "http://www.w3.org/Graphics/SVG/1.1/DTD/svg11.dtd">
<svg version="1.1" xmlns="http://www.w3.org/2000/svg" xmlns:xlink="http://www.w3.org/1999/xlink" x="0px" y="0px" width="72px"
	 height="72px" viewBox="0 0 72 72" enable-background="new 0 0 72 72" xml:space="preserve">
<g id="Food">
	
		<circle id="fCircle" opacity="0.4" fill="#C66B28" stroke="#5B380A" stroke-miterlimit="10" enable-background="new    " cx="36.518" cy="36.302" r="35.051"/>
</g>
<g id="Layer_2">
	<path fill="#ED701B" stroke="#5B380A" stroke-miterlimit="10" d="M61.578,23.702c2.113,1.04-0.878,12.88-4.919,12.913
		c-4.042,0.032-10.184-1.965-10.482-2.356c-0.299-0.392-7.763,1.987-9.449,1.381c-1.686-0.606-4.345-0.003-7.288-0.86
		c-2.943-0.856-3.926,1.064-6.654,0.386c-2.728-0.678-5.198,1.882-8.031-0.54s-4.937-1.142-6.524-2.603
		c-1.587-1.46,6.395-3.625,7.087-3.339c0.691,0.285,6.951-2.948,7.763-1.987s5.832-0.636,7.518-0.03s4.417-2.025,7.533-1.097
		c3.115,0.928,6.758-1.596,9.093-0.811C49.559,25.543,57.091,21.493,61.578,23.702z"/>
	<path fill="#C66B28" stroke="#5B380A" stroke-miterlimit="10" d="M20.711,30.468c0.668-0.649-0.303-5.031,0.486-3.576"/>
	<path fill="#C66B28" stroke="#5B380A" stroke-miterlimit="10" d="M31.167,31.152c0,0,0.49-2.889-0.3-4.344"/>
	<path fill="#C66B28" stroke="#5B380A" stroke-miterlimit="10" d="M49.377,28.893c0.225-0.622,1.451-3.677,0.979-5.442"/>
	<path fill="#ED701B" stroke="#5B380A" stroke-miterlimit="10" d="M60.073,24.575c2.324,0.858,2.192,15.595-1.773,16.376
		c-3.966,0.782-10.478-0.483-10.865-0.897c-0.386-0.414-7.161,3.807-8.962,3.39c-1.801-0.417-4.273,0.794-7.369,0.309
		s-3.607,1.997-6.45,1.686c-2.843-0.311-4.664,3.21-8.024,0.829c-3.36-2.381-5.125-0.462-7.032-1.919
		c-1.907-1.458,5.428-5.518,6.175-5.303s6.134-4.81,7.161-3.807s5.583-1.834,7.384-1.417c1.801,0.417,3.863-3.238,7.146-2.699
		c3.283,0.539,6.265-3.154,8.747-2.643C48.694,28.989,55.137,22.752,60.073,24.575z"/>
	<path fill="#C66B28" stroke="#5B380A" stroke-miterlimit="10" d="M20.103,44.896c0.503-0.9-1.491-5.972-0.37-4.374"/>
	<path fill="#C66B28" stroke="#5B380A" stroke-miterlimit="10" d="M30.546,43.794c0,0-0.204-3.552-1.325-5.15"/>
	<path fill="#C66B28" stroke="#5B380A" stroke-miterlimit="10" d="M47.913,37.741c0.073-0.787,0.555-4.673-0.328-6.7"/>
	<path fill="#ED701B" stroke="#5B380A" stroke-miterlimit="10" d="M62.961,24.992c2.453,0.347,5.441,14.778,1.731,16.381
		s-10.343,1.744-10.808,1.421c-0.465-0.323-6.193,5.235-8.042,5.209s-4.008,1.68-7.137,1.861c-3.129,0.181-3.103,2.715-5.948,3.012
		S28.878,57,25.09,55.384c-3.788-1.616-5.107,0.633-7.279-0.389s4.138-6.541,4.914-6.49c0.776,0.052,4.978-5.998,6.193-5.235
		c1.215,0.763,5.068-2.973,6.917-2.947s3.09-3.982,6.413-4.149c3.323-0.168,5.456-4.408,7.99-4.434
		C52.773,31.714,57.751,24.255,62.961,24.992z"/>
	<path fill="#C66B28" stroke="#5B380A" stroke-miterlimit="10" d="M28.194,53.308c0.301-0.986-2.721-5.522-1.287-4.196"/>
	<path fill="#C66B28" stroke="#5B380A" stroke-miterlimit="10" d="M38.167,50.023c0,0-0.951-3.428-2.385-4.753"/>
	<path fill="#C66B28" stroke="#5B380A" stroke-miterlimit="10" d="M53.861,40.433c-0.095-0.785-0.446-4.684-1.738-6.479"/>
</g>
</svg>
