<?xml version="1.0" encoding="utf-8"?>
<!-- Generator: Adobe Illustrator 17.0.2, SVG Export Plug-In . SVG Version: 6.00 Build 0)  -->
<!DOCTYPE svg PUBLIC "-//W3C//DTD SVG 1.1//EN" "http://www.w3.org/Graphics/SVG/1.1/DTD/svg11.dtd">
<svg version="1.1" xmlns="http://www.w3.org/2000/svg" xmlns:xlink="http://www.w3.org/1999/xlink" x="0px" y="0px" width="72px"
	 height="72px" viewBox="0 0 72 72" enable-background="new 0 0 72 72" xml:space="preserve">
<g id="Food">
	
		<circle id="fCircle" opacity="0.4" fill="#FF1D1D" stroke="#680000" stroke-miterlimit="10" enable-background="new    " cx="36.518" cy="36.302" r="35.051"/>
</g>
<g id="Layer_2">
	<path fill="#FF1D1D" stroke="#680000" stroke-miterlimit="10" d="M19.669,40.665c2.264-3.315,7.938-2.449,8.619-0.859
		c0.681,1.59,2.026-3.435,4.908-1.306c2.882,2.13,5.663,6.76,4.674,9.618c-0.989,2.858-3.648,6.986-9.421,6.736
		s-9.994-4.418-9.512-7.944S18.472,42.418,19.669,40.665z"/>
	<path fill="none" stroke="#680000" stroke-miterlimit="10" d="M29.059,39.852c0,0-11.085-15.283-2.492-20.336"/>
	<path fill="none" stroke="#680000" stroke-miterlimit="10" d="M45.843,32.684c0,0-14.023,7.069-19.276-13.168"/>
	<path fill="#FF1D1D" stroke="#680000" stroke-miterlimit="10" d="M44.337,41.21c-2.059-2.848,0.336-7.263,1.847-7.353
		s-2.229-2.686,0.379-4.429c2.608-1.743,7.246-2.66,9.307-0.998c2.061,1.662,4.672,5.075,2.756,9.756
		c-1.917,4.681-6.6,6.921-9.362,5.48C46.502,42.223,45.425,42.715,44.337,41.21z"/>
</g>
</svg>
