<?xml version="1.0" encoding="utf-8"?>
<!-- Generator: Adobe Illustrator 16.0.0, SVG Export Plug-In . SVG Version: 6.00 Build 0)  -->
<!DOCTYPE svg PUBLIC "-//W3C//DTD SVG 1.1//EN" "http://www.w3.org/Graphics/SVG/1.1/DTD/svg11.dtd">
<svg version="1.1" xmlns="http://www.w3.org/2000/svg" xmlns:xlink="http://www.w3.org/1999/xlink" x="0px" y="0px" width="72px"
	 height="72px" viewBox="0 0 72 72" enable-background="new 0 0 72 72" xml:space="preserve">
<g id="Food" display="none">
	
		<circle id="fCircle" display="inline" opacity="0.4" fill="#E47676" stroke="#7C0F0F" stroke-miterlimit="10" enable-background="new    " cx="36.518" cy="36.302" r="35.051"/>
	<path display="inline" fill="#E47676" stroke="#7C0F0F" stroke-miterlimit="10" d="M39.789,10.965l4.822,1.252l0.856,2.157
		c0,0-2.823,3.046-2.593,4.109c0.229,1.062,0.525,2.29,0.525,2.29s4.633-3.64,11.438,3.137c4.616,4.602,5.337,9.312,3.592,13.369
		c-1.748,4.06-13.283,27.006-23.547,22.586c-10.264-4.422-7.555-7.52-7.555-7.52s-2.476,3.197-8.508,0.603
		c-6.031-2.601-5.101-22.959-0.105-34.558c4.995-11.599,17.948-4.645,19.488-1.508c1.535,3.137,1.355,0.996,1.355,0.996l0.672-3.149
		L39.789,10.965z"/>
</g>
<g id="Layer_2">
	<circle opacity="0.4" fill="#D6D600" stroke="#53561E" stroke-miterlimit="10" cx="36.518" cy="36.302" r="35.051"/>
	<polygon fill="#D6D600" stroke="#878717" stroke-miterlimit="10" points="33.131,12.054 43.99,13.114 42.931,23.975 53.188,24.977 
		52.168,35.435 41.606,34.404 39.054,60.551 28.496,59.52 31.049,33.373 20.59,32.352 21.631,21.691 32.09,22.712 	"/>
</g>
</svg>
