<?xml version="1.0" encoding="utf-8"?>
<!-- Generator: Adobe Illustrator 17.0.2, SVG Export Plug-In . SVG Version: 6.00 Build 0)  -->
<!DOCTYPE svg PUBLIC "-//W3C//DTD SVG 1.1//EN" "http://www.w3.org/Graphics/SVG/1.1/DTD/svg11.dtd">
<svg version="1.1" xmlns="http://www.w3.org/2000/svg" xmlns:xlink="http://www.w3.org/1999/xlink" x="0px" y="0px" width="72px"
	 height="72px" viewBox="0 0 72 72" enable-background="new 0 0 72 72" xml:space="preserve">
<g id="Layer_1">
	<g id="Food">
		
			<circle id="fCircle" opacity="0.4" fill="#8DFF1F" stroke="#26560D" stroke-miterlimit="10" enable-background="new    " cx="36.518" cy="36.302" r="35.051"/>
	</g>
</g>
<g id="Layer_2">
	<path fill="#8DFF1F" stroke="#26560D" stroke-miterlimit="10" d="M26.829,34.929c2.593-2.47,2.16-4.856,0.947-7.11
		s-5.358-2.354-7.16-0.335c-1.802,2.019-2.982,5.212-0.627,7.012C22.345,36.297,26.829,34.929,26.829,34.929z"/>
	<path fill="#8DFF1F" stroke="#26560D" stroke-miterlimit="10" d="M13.302,50.132c2.775,3.202,5.745,2.934,8.629,1.762
		c2.884-1.172,3.415-5.904,1.116-8.159c-2.299-2.254-6.1-3.909-8.54-1.386S13.302,50.132,13.302,50.132z"/>
	<path fill="#8DFF1F" stroke="#26560D" stroke-miterlimit="10" d="M20.416,53.439c3.068,3.506,6.363,3.203,9.565,1.908
		s3.805-6.488,1.262-8.954c-2.543-2.467-6.754-4.271-9.468-1.496S20.416,53.439,20.416,53.439z"/>
	<path fill="#8DFF1F" stroke="#26560D" stroke-miterlimit="10" d="M20.931,34.115c-4.462,1.518-5.367,4.623-5.291,8.003
		s4.819,5.811,8.098,4.393c3.279-1.418,6.53-4.592,4.862-8.065C26.933,34.974,20.931,34.115,20.931,34.115z"/>
	<path fill="#8DFF1F" stroke="#26560D" stroke-miterlimit="10" d="M36.309,44.651c-4.151,1.352-4.981,4.152-4.896,7.205
		s4.517,5.268,7.567,4.002c3.049-1.266,6.065-4.119,4.496-7.263S36.309,44.651,36.309,44.651z"/>
	<path fill="#8DFF1F" stroke="#26560D" stroke-miterlimit="10" d="M29.796,40.04c-2.494,3.601-1.411,6.076,0.565,8.141
		c1.976,2.064,6.925,0.76,8.585-2.074s2.304-6.748-0.923-7.924C34.797,37.007,29.796,40.04,29.796,40.04z"/>
	<path fill="#8DFF1F" stroke="#26560D" stroke-miterlimit="10" d="M49.677,42.588c-2.209-3.37-4.961-3.448-7.73-2.654
		s-3.753,5.252-1.881,7.663c1.872,2.411,5.185,4.419,7.688,2.285C50.258,47.749,49.677,42.588,49.677,42.588z"/>
	<path fill="#8DFF1F" stroke="#26560D" stroke-miterlimit="10" d="M49.685,34.174c-2.654-2.944-6.133-2.905-9.669-2.081
		c-3.536,0.824-4.967,4.873-2.699,6.968c2.268,2.095,6.375,3.769,9.631,1.751S49.685,34.174,49.685,34.174z"/>
	<path fill="#8DFF1F" stroke="#26560D" stroke-miterlimit="10" d="M25.955,29.914c-2.14,4.012-0.619,7.16,1.797,9.935
		s7.519,1.886,8.881-1.315c1.362-3.2,1.476-7.849-2.148-9.723C30.862,26.939,25.955,29.914,25.955,29.914z"/>
	<path fill="#8DFF1F" stroke="#26560D" stroke-miterlimit="10" d="M35.681,25.21c-2.232,3.572-1.039,6.175,1.002,8.403
		c2.042,2.227,6.795,1.147,8.258-1.681s1.873-6.819-1.339-8.199C40.391,22.354,35.681,25.21,35.681,25.21z"/>
	<path fill="#8DFF1F" stroke="#26560D" stroke-miterlimit="10" d="M33.493,31.162c4.017-1.266,4.801-4.021,4.695-7.04
		s-4.422-5.285-7.371-4.085c-2.949,1.2-5.853,3.969-4.307,7.104S33.493,31.162,33.493,31.162z"/>
	<path fill="#8DFF1F" stroke="#26560D" stroke-miterlimit="10" d="M46.917,37.465c-0.542,4.15,1.637,6.051,4.433,7.271
		c2.796,1.22,6.683-1.66,6.834-4.824s-1.146-6.971-4.655-6.95S46.917,37.465,46.917,37.465z"/>
	<path fill="#8DFF1F" stroke="#26560D" stroke-miterlimit="10" d="M45.251,28.017c-0.518,4.05,1.621,5.913,4.362,7.112
		s6.536-1.601,6.675-4.69s-1.143-6.81-4.578-6.8C48.275,23.648,45.251,28.017,45.251,28.017z"/>
	<path fill="#8DFF1F" stroke="#26560D" stroke-miterlimit="10" d="M43.155,25.65c2.811,1.48,5.292,0.502,7.572-1.079
		c2.279-1.581,2.054-5.003-0.218-5.952c-2.272-0.95-5.733-1.083-7.443,1.316S43.155,25.65,43.155,25.65z"/>
	<path fill="#8DFF1F" stroke="#26560D" stroke-miterlimit="10" d="M39.141,24.213c3.586-0.138,5.208-2.365,6.237-5.041
		c1.029-2.676-1.49-5.71-4.222-5.371s-6.006,2.065-5.959,5.191S39.141,24.213,39.141,24.213z"/>
	<path fill="none" stroke="#26560D" stroke-miterlimit="10" d="M51.709,23.639c0,0,7.234-3.625,6.142-7.728"/>
</g>
</svg>
