<?xml version="1.0" encoding="utf-8"?>
<!-- Generator: Adobe Illustrator 16.0.0, SVG Export Plug-In . SVG Version: 6.00 Build 0)  -->
<!DOCTYPE svg PUBLIC "-//W3C//DTD SVG 1.1//EN" "http://www.w3.org/Graphics/SVG/1.1/DTD/svg11.dtd">
<svg version="1.1" xmlns="http://www.w3.org/2000/svg" xmlns:xlink="http://www.w3.org/1999/xlink" x="0px" y="0px" width="72px"
	 height="72px" viewBox="0 0 72 72" enable-background="new 0 0 72 72" xml:space="preserve">
<g id="Food" display="none">
	
		<circle id="fCircle" display="inline" opacity="0.4" fill="#E47676" stroke="#7C0F0F" stroke-miterlimit="10" enable-background="new    " cx="36.518" cy="36.302" r="35.051"/>
	<path display="inline" fill="#E47676" stroke="#7C0F0F" stroke-miterlimit="10" d="M39.789,10.965l4.822,1.252l0.856,2.157
		c0,0-2.823,3.046-2.593,4.109c0.229,1.062,0.525,2.29,0.525,2.29s4.633-3.64,11.438,3.137c4.616,4.602,5.337,9.312,3.592,13.369
		c-1.748,4.06-13.283,27.006-23.547,22.586c-10.264-4.422-7.555-7.52-7.555-7.52s-2.476,3.197-8.508,0.603
		c-6.031-2.601-5.101-22.959-0.105-34.558c4.995-11.599,17.948-4.645,19.488-1.508c1.535,3.137,1.355,0.996,1.355,0.996l0.672-3.149
		L39.789,10.965z"/>
</g>
<g id="Layer_2">
	<circle opacity="0.4" fill="#EAA34E" stroke="#4C391E" stroke-miterlimit="10" cx="36" cy="36.302" r="35.051"/>
	<line fill="none" stroke="#253A7F" stroke-width="4" x1="21.603" y1="31.191" x2="21.603" y2="31.191"/>
	<path fill="#DB8E28" stroke="#7F632A" stroke-miterlimit="10" d="M22.733,59.174c-5.495-1.964-9.486-6.851-11.063-13.554
		c-0.719-3.041-0.92-8.065-0.327-8.065c0.199,0,0.725,1.378,1.174,3.063c0.976,3.69,2.647,7.158,4.26,8.853
		c2.676,2.817,9.308,3.918,13.132,2.184c2.978-1.351,4.185-4.564,2.89-7.69c-1.001-2.412-3.272-3.223-7.497-2.667
		c0,0-2.592-2.787-3.418-7.742l2.655,0.242c3.199,0.289,5.612-0.418,6.869-2.01c1.177-1.499,1.15-2.077-0.161-3.6
		c-1.89-2.199-5.286-1.642-12.163,1.993l-3.468-5.814l1.455-1.11c3.643-2.778,9.971-4.169,13.573-2.979
		c3.281,1.081,5.688,5.378,5.046,9c-0.436,2.449-2.399,5.878-3.915,6.84l-1.309,0.83l1.805,0.814
		c3.074,1.385,4.946,0.324,7.188-4.058c3.099-6.068,5.112-7.64,9.786-7.646c2.177-0.003,2.951,0.225,4.54,1.338
		c3.962,2.778,6.121,8.528,5.647,15.049c-0.602,8.259-4.514,13.27-10.362,13.27c-3.211,0-5.278-1.125-6.927-3.77
		c-1.446-2.321-2.098-6.92-1.268-8.942c0.399-0.97,0.47-1.003,0.497-0.229c0.049,1.43,1.67,3.749,3.163,4.521
		c3.657,1.89,8.908-0.485,10.985-4.973c1.574-3.406,0.73-9.977-1.436-11.137c-0.452-0.243-1.57-0.438-2.485-0.438
		c-1.946,0-3.475,1.396-5.615,5.139c-0.739,1.292-1.987,2.961-2.77,3.713c-1.271,1.216-1.724,1.361-4.266,1.361h-2.845l0.917,2.042
		c1.318,2.924,1.257,7.675-0.137,10.567c-1.23,2.557-4.075,5.143-6.351,5.775C28.32,59.959,24.715,59.881,22.733,59.174z
		 M33.45,19.651c-1.259-2.147-2.033-6.156-1.188-6.156c0.99,2.151,3.021,4.067,5.197,5.408c3.906,1.89,7.868,1.128,12.197-2.352
		c0.952-0.765,1.797-1.306,1.876-1.204c1.055,1.642,2.884,2.98,3.489,4.888c0,0.803-3.463,3.117-6.194,4.139
		C42.057,26.327,37.45,25.556,33.45,19.651z M36.862,14.688L41.269,9.8l4.899,4.534c-1.678,1.382-2.887,3.523-4.801,4.607
		C39.856,17.828,37.599,16.514,36.862,14.688z"/>
</g>
</svg>
