<?xml version="1.0" encoding="utf-8"?>
<!-- Generator: Adobe Illustrator 16.0.0, SVG Export Plug-In . SVG Version: 6.00 Build 0)  -->
<!DOCTYPE svg PUBLIC "-//W3C//DTD SVG 1.1//EN" "http://www.w3.org/Graphics/SVG/1.1/DTD/svg11.dtd">
<svg version="1.1" xmlns="http://www.w3.org/2000/svg" xmlns:xlink="http://www.w3.org/1999/xlink" x="0px" y="0px" width="72px"
	 height="72px" viewBox="0 0 72 72" enable-background="new 0 0 72 72" xml:space="preserve">
<g id="Food" display="none">
	
		<circle id="fCircle" display="inline" opacity="0.4" fill="#E47676" stroke="#7C0F0F" stroke-miterlimit="10" enable-background="new    " cx="36.518" cy="36.302" r="35.051"/>
	<path display="inline" fill="#E47676" stroke="#7C0F0F" stroke-miterlimit="10" d="M39.789,10.965l4.822,1.252l0.856,2.157
		c0,0-2.823,3.046-2.593,4.109c0.229,1.062,0.525,2.29,0.525,2.29s4.633-3.64,11.438,3.137c4.616,4.602,5.337,9.312,3.592,13.369
		c-1.748,4.06-13.283,27.006-23.547,22.586c-10.264-4.422-7.555-7.52-7.555-7.52s-2.476,3.197-8.508,0.603
		c-6.031-2.601-5.101-22.959-0.105-34.558c4.995-11.599,17.948-4.645,19.488-1.508c1.535,3.137,1.355,0.996,1.355,0.996l0.672-3.149
		L39.789,10.965z"/>
</g>
<g id="Layer_2">
	<circle opacity="0.4" fill="#6FCE5B" stroke="#32541E" stroke-miterlimit="10" cx="36.518" cy="36.302" r="35.051"/>
	<g>
		<path fill="#6FCE5B" stroke="#49772B" stroke-miterlimit="10" d="M47.025,51.833c-11.69,0-21.167-9.477-21.167-21.166
			c0-11.156,8.637-20.275,19.586-21.087c-2.645-0.838-5.46-1.293-8.382-1.293C21.756,8.287,9.349,20.694,9.349,36
			c0,15.305,12.408,27.713,27.714,27.713c12.636,0,23.29-8.461,26.624-20.023C59.813,48.64,53.798,51.833,47.025,51.833z"/>
	</g>
	<polygon fill="#6FCE5B" stroke="#49772B" stroke-miterlimit="10" points="52.667,17.82 55.316,23.188 61.239,24.048 56.953,28.226 
		57.965,34.126 52.667,31.34 47.369,34.126 48.381,28.226 44.095,24.048 50.018,23.188 	"/>
</g>
</svg>
