<?xml version="1.0" encoding="utf-8"?>
<!-- Generator: Adobe Illustrator 16.0.0, SVG Export Plug-In . SVG Version: 6.00 Build 0)  -->
<!DOCTYPE svg PUBLIC "-//W3C//DTD SVG 1.1//EN" "http://www.w3.org/Graphics/SVG/1.1/DTD/svg11.dtd">
<svg version="1.1" xmlns="http://www.w3.org/2000/svg" xmlns:xlink="http://www.w3.org/1999/xlink" x="0px" y="0px" width="72px"
	 height="72px" viewBox="0 0 72 72" enable-background="new 0 0 72 72" xml:space="preserve">
<g id="Food" display="none">
	
		<circle id="fCircle" display="inline" opacity="0.4" fill="#E47676" stroke="#7C0F0F" stroke-miterlimit="10" enable-background="new    " cx="36.518" cy="36.302" r="35.051"/>
	<path display="inline" fill="#E47676" stroke="#7C0F0F" stroke-miterlimit="10" d="M39.789,10.965l4.822,1.252l0.856,2.157
		c0,0-2.823,3.046-2.593,4.109c0.229,1.062,0.525,2.29,0.525,2.29s4.633-3.64,11.438,3.137c4.616,4.602,5.337,9.312,3.592,13.369
		c-1.748,4.06-13.283,27.006-23.547,22.586c-10.264-4.422-7.555-7.52-7.555-7.52s-2.476,3.197-8.508,0.603
		c-6.031-2.601-5.101-22.959-0.105-34.558c4.995-11.599,17.948-4.645,19.488-1.508c1.535,3.137,1.355,0.996,1.355,0.996l0.672-3.149
		L39.789,10.965z"/>
</g>
<g id="Layer_2">
	<circle opacity="0.4" fill="#6099CC" stroke="#1E464F" stroke-miterlimit="10" cx="36" cy="36.302" r="35.051"/>
	<line fill="none" stroke="#253A7F" stroke-width="4" x1="21.603" y1="31.191" x2="21.603" y2="31.191"/>
</g>
<g id="Layer_3">
	<g>
		<g id="t">
			<polygon fill="none" stroke="#253A7F" stroke-width="4" points="15.523,24.413 35.398,59.01 55.273,24.413 			"/>
			<polygon fill="none" stroke="#78AFD1" stroke-width="2" points="15.523,24.413 35.398,59.01 55.273,24.413 			"/>
		</g>
		<g id="t_1_">
			<polygon fill="none" stroke="#253A7F" stroke-width="4" points="15.523,47.6 35.398,13.003 55.273,47.6 			"/>
			<polygon fill="none" stroke="#78AFD1" stroke-width="2" points="15.523,47.6 35.398,13.003 55.273,47.6 			"/>
		</g>
		<line fill="none" stroke="#78AFD1" stroke-width="2" x1="23.354" y1="24.413" x2="34.479" y2="24.413"/>
		<line fill="none" stroke="#78AFD1" stroke-width="2" x1="36.365" y1="24.413" x2="47.49" y2="24.413"/>
		<line fill="none" stroke="#78AFD1" stroke-width="2" x1="51.891" y1="30.301" x2="39.223" y2="52.352"/>
		<line fill="none" stroke="#78AFD1" stroke-width="2" x1="32.278" y1="53.577" x2="19.75" y2="31.771"/>
	</g>
</g>
</svg>
