<?xml version="1.0" encoding="utf-8"?>
<!-- Generator: Adobe Illustrator 17.0.2, SVG Export Plug-In . SVG Version: 6.00 Build 0)  -->
<!DOCTYPE svg PUBLIC "-//W3C//DTD SVG 1.1//EN" "http://www.w3.org/Graphics/SVG/1.1/DTD/svg11.dtd">
<svg version="1.1" xmlns="http://www.w3.org/2000/svg" xmlns:xlink="http://www.w3.org/1999/xlink" x="0px" y="0px" width="72px"
	 height="72px" viewBox="0 0 72 72" enable-background="new 0 0 72 72" xml:space="preserve">
<g id="Layer_1">
	<g id="Food">
		
			<circle id="fCircle" opacity="0.4" fill="#998679" stroke="#333116" stroke-miterlimit="10" enable-background="new    " cx="36.518" cy="36.302" r="35.051"/>
	</g>
</g>
<g id="Layer_3">
	<path fill="#D19D6F" stroke="#4F4A2F" stroke-miterlimit="10" d="M35.091,16.73c0,0-2.584-1.506-2.348-0.962
		c0.236,0.544,0.286,1.981,0.286,1.981l-2.307-0.679l1.852,1.9l-0.455,1.221c0,0-16.283,0.902-18.531,15.961
		s19.004,19.075,19.004,19.075l0.338,1.251l5.834-1.13l0.146-1.177c0,0,18.789-2.13,19.861-16.586
		c1.073-14.456-17.266-16.869-17.266-16.869l-0.924-2.034l-2.056-3.315l-1.187,1.616l-2.047-2.161L35.091,16.73z"/>
	<path fill="none" stroke="#4F4A2F" stroke-miterlimit="10" d="M39,54c0,0,10.625-4.201,10.375-17.423s-7.87-15.859-7.87-15.859"/>
	<path fill="none" stroke="#4F4A2F" stroke-miterlimit="10" d="M31.85,55c0,0-12.778-2.018-12.475-15.75
		s13.243-19.182,13.243-19.182"/>
</g>
</svg>
