<?xml version="1.0" encoding="utf-8"?>
<!-- Generator: Adobe Illustrator 17.0.2, SVG Export Plug-In . SVG Version: 6.00 Build 0)  -->
<!DOCTYPE svg PUBLIC "-//W3C//DTD SVG 1.1//EN" "http://www.w3.org/Graphics/SVG/1.1/DTD/svg11.dtd">
<svg version="1.1" xmlns="http://www.w3.org/2000/svg" xmlns:xlink="http://www.w3.org/1999/xlink" x="0px" y="0px" width="72px"
	 height="72px" viewBox="0 0 72 72" enable-background="new 0 0 72 72" xml:space="preserve">
<g id="Layer_1">
	<g id="Food">
		
			<circle id="fCircle" opacity="0.4" fill="#7F5332" stroke="#333116" stroke-miterlimit="10" enable-background="new    " cx="36.518" cy="36.302" r="35.051"/>
	</g>
</g>
<g id="Layer_2">
	<path fill="#7F5332" stroke="#333116" stroke-miterlimit="10" d="M13.411,44.69c-1.286-2.851,0.026-5.942,1.432-8.802
		s4.435-6.375,7.056-6.895c2.621-0.52,10.324-1.475,12.087-1.782c1.763-0.308,5.806-5.985,7.123-7.731s5.618-6.449,8.759-4.348
		s8.542,6.795,8.852,9.231s0.247,10.955-0.417,13.65c-0.664,2.695-4.31,9.021-7.156,11.654C48.301,52.3,47.5,55.75,40.962,57.826
		c-1.553,0.493-10.309-0.823-11.379-1.47c-1.07-0.646-4.672-1.887-5.789-2.649s-7.298-2.714-8.161-3.848S13.411,44.69,13.411,44.69z
		"/>
	<polygon fill="#7F5332" stroke="#333116" stroke-miterlimit="10" points="21.062,35.125 20.594,35.781 21.062,36.219 21.438,35.75 
			"/>
	<polygon fill="#7F5332" stroke="#333116" stroke-miterlimit="10" points="46.462,18.497 46.75,19.25 47.374,19.101 47.19,18.529 	
		"/>
	<polygon fill="#7F5332" stroke="#333116" stroke-miterlimit="10" points="43.699,26.803 44.459,27.072 44.75,26.5 44.196,26.269 	
		"/>
</g>
</svg>
