<?xml version="1.0" encoding="utf-8"?>
<!-- Generator: Adobe Illustrator 17.0.2, SVG Export Plug-In . SVG Version: 6.00 Build 0)  -->
<!DOCTYPE svg PUBLIC "-//W3C//DTD SVG 1.1//EN" "http://www.w3.org/Graphics/SVG/1.1/DTD/svg11.dtd">
<svg version="1.1" xmlns="http://www.w3.org/2000/svg" xmlns:xlink="http://www.w3.org/1999/xlink" x="0px" y="0px" width="72px"
	 height="72px" viewBox="0 0 72 72" enable-background="new 0 0 72 72" xml:space="preserve">
<g id="Layer_1">
	<g id="Food">
		
			<circle id="fCircle" opacity="0.4" fill="#58894A" stroke="#1F3317" stroke-miterlimit="10" enable-background="new    " cx="36.518" cy="36.302" r="35.051"/>
	</g>
</g>
<g id="Layer_3">
	<path fill="#4F8E42" stroke="#19441D" stroke-miterlimit="10" d="M44.807,35.354c0.374-5.239-0.219-12.128-10.319-17.594
		s-18.384-2.22-18.384-2.22s-3.966,6.679,0.244,13.676c2.606,4.331,8.027,8.087,11.521,9.533c3.495,1.446,13.274,3.583,15.096,1.179
		S44.807,35.354,44.807,35.354z"/>
	<path fill="#4F8E42" stroke="#19441D" stroke-miterlimit="10" d="M47.273,37.664c-2.365-5.279-6.592-11.657-19.864-11.737
		c-13.272-0.079-20.1,7.356-20.1,7.356s-0.579,8.534,7.431,13.146c4.958,2.855,12.512,3.696,16.87,3.291
		c4.358-0.405,15.552-3.39,16.167-6.665S47.273,37.664,47.273,37.664z"/>
	<path fill="#4F8E42" stroke="#19441D" stroke-miterlimit="10" d="M58.671,39.807c-3.355-3.859-8.703-8.118-21.271-4.271
		c-12.567,3.847-17.448,12.28-17.448,12.28s1.26,7.537,9.812,9.156c5.293,1.002,12.615-0.5,16.65-2.136
		c4.036-1.635,13.988-7.514,13.876-10.523S58.671,39.807,58.671,39.807z"/>
	<path fill="none" stroke="#19441D" stroke-miterlimit="10" d="M29.73,45.672c3.725-1.973,22.882-6.972,27.538-4.999
		c4.656,1.973,6.386,0.132,7.982-0.658"/>
	<path fill="#4F8E42" stroke="#19441D" stroke-miterlimit="10" d="M35.45,35.937c0,0-8.248-4.999-18.625-1.447"/>
	<path fill="none" stroke="#19441D" stroke-miterlimit="10" d="M20.55,19.494c0,0,4.656,6.051,7.849,6.314"/>
	<path fill="none" stroke="#19441D" stroke-miterlimit="10" d="M44.763,32.517c0,0,4.922-1.052,6.386-3.289"/>
</g>
</svg>
