<?xml version="1.0" encoding="utf-8"?>
<!-- Generator: Adobe Illustrator 17.0.2, SVG Export Plug-In . SVG Version: 6.00 Build 0)  -->
<!DOCTYPE svg PUBLIC "-//W3C//DTD SVG 1.1//EN" "http://www.w3.org/Graphics/SVG/1.1/DTD/svg11.dtd">
<svg version="1.1" xmlns="http://www.w3.org/2000/svg" xmlns:xlink="http://www.w3.org/1999/xlink" x="0px" y="0px" width="72px"
	 height="72px" viewBox="0 0 72 72" enable-background="new 0 0 72 72" xml:space="preserve">
<g id="Layer_1">
	<g id="Food">
		
			<circle id="fCircle" opacity="0.4" fill="#969B94" stroke="#000000" stroke-miterlimit="10" enable-background="new    " cx="36.518" cy="36.302" r="35.051"/>
	</g>
</g>
<g id="Layer_2">
	<path fill="#77A856" stroke="#565952" stroke-miterlimit="10" d="M50.32,14.062c0,0,1.71-1.677,3.596-0.526s0.92,3.218,0.92,3.218
		s-3.071,6.756-3.27,7.135c-0.199,0.379,0.545,0.769,0.108,1.827c-0.437,1.058-1.698,1.201-1.698,1.201l-4.476,8.755
		c0,0,0.864,0.614,0.466,1.371c-0.397,0.757-1.724,1.026-1.724,1.026l-4.304,8.201c0,0,0.731,0.866,0.493,1.546
		s-1.751,0.851-1.751,0.851l-2.754,5.474c0,0,0.439,1.196,0.108,1.827s-1.658,0.9-1.658,0.9l-2.278,4.115
		c0,0-1.83,1.453-3.158,0.595c-1.328-0.858-0.482-3.149-0.482-3.149s1.88-4.485,1.681-4.106c-0.199,0.379-0.864-0.614-0.334-1.623
		c0.53-1.009,1.445-1.172,1.445-1.172l2.874-5.25c0,0-0.718-1.343-0.387-1.973s1.631-1.075,1.631-1.075l3.907-7.444
		c0,0-0.704-0.691-0.373-1.322s1.22-0.969,1.22-0.969l4.993-9.288c0,0-0.545-0.769-0.241-1.575c0.304-0.806,1.247-0.794,1.247-0.794
		L50.32,14.062z"/>
	<path fill="none" stroke="#565952" stroke-miterlimit="10" d="M45.116,24.204c0,0,0.241,1.575,1.542,2.258
		c1.302,0.683,3.319,0.454,3.319,0.454"/>
	<path fill="none" stroke="#565952" stroke-miterlimit="10" d="M39.276,35.783c0,0,1.223,1.285,2.245,1.822
		c1.023,0.537,2.722,0.463,2.722,0.463"/>
	<path fill="#77A856" stroke="#565952" stroke-miterlimit="10" d="M50.32,14.062c-1.068,1.024,0.575,3.198,1.504,3.686
		c0.93,0.488,2.629,0.414,3.012-0.994c0.383-1.408,0.94-2.242-0.455-2.974S51.514,12.918,50.32,14.062z"/>
	<path fill="#77A856" stroke="#565952" stroke-miterlimit="10" d="M40.178,9.074c0,0,1.71-1.677,3.596-0.526s0.92,3.218,0.92,3.218
		s-3.071,6.756-3.27,7.135c-0.199,0.379,0.545,0.769,0.108,1.827c-0.437,1.058-1.698,1.201-1.698,1.201l-4.476,8.755
		c0,0,0.864,0.614,0.466,1.371C35.427,32.811,34.1,33.08,34.1,33.08l-4.304,8.201c0,0,0.731,0.866,0.493,1.546
		c-0.238,0.68-1.751,0.851-1.751,0.851l-2.754,5.474c0,0,0.439,1.196,0.108,1.827s-1.658,0.9-1.658,0.9l-2.278,4.115
		c0,0-1.83,1.453-3.158,0.595c-1.328-0.858-0.482-3.149-0.482-3.149s1.88-4.485,1.681-4.106c-0.199,0.379-0.864-0.614-0.334-1.623
		c0.53-1.009,1.445-1.172,1.445-1.172l2.874-5.25c0,0-0.718-1.343-0.387-1.973s1.631-1.075,1.631-1.075l3.907-7.444
		c0,0-0.704-0.691-0.373-1.322s1.22-0.969,1.22-0.969l4.993-9.288c0,0-0.545-0.769-0.241-1.575c0.304-0.806,1.247-0.794,1.247-0.794
		L40.178,9.074z"/>
	<path fill="none" stroke="#565952" stroke-miterlimit="10" d="M34.973,19.216c0,0,0.241,1.575,1.542,2.258
		c1.302,0.683,3.319,0.454,3.319,0.454"/>
	<path fill="none" stroke="#565952" stroke-miterlimit="10" d="M29.133,30.795c0,0,1.223,1.285,2.245,1.822S34.1,33.08,34.1,33.08"
		/>
	<path fill="#77A856" stroke="#565952" stroke-miterlimit="10" d="M40.178,9.074c-1.068,1.024,0.575,3.198,1.504,3.686
		c0.93,0.488,2.629,0.414,3.012-0.994c0.383-1.408,0.94-2.242-0.455-2.974C42.844,8.06,41.371,7.93,40.178,9.074z"/>
	<path fill="#77A856" stroke="#565952" stroke-miterlimit="10" d="M45.985,9.373c0,0,1.833-1.719,3.952-0.439
		s1.121,3.436,1.121,3.436s-3.168,7.049-3.375,7.443c-0.207,0.394,0.627,0.832,0.18,1.937s-1.834,1.215-1.834,1.215l-4.653,9.118
		c0,0,0.973,0.678,0.56,1.466s-1.869,1.029-1.869,1.029l-4.481,8.538c0,0,0.835,0.941,0.595,1.652s-1.905,0.843-1.905,0.843
		l-2.86,5.703c0,0,0.524,1.28,0.18,1.937s-1.8,0.898-1.8,0.898l-2.379,4.28c0,0-1.972,1.478-3.466,0.526s-0.635-3.349-0.635-3.349
		s1.927-4.685,1.72-4.291s-0.973-0.678-0.422-1.729c0.552-1.051,1.557-1.193,1.557-1.193l3-5.462c0,0-0.837-1.444-0.492-2.101
		c0.345-0.657,1.765-1.084,1.765-1.084l4.067-7.75c0,0-0.8-0.755-0.455-1.412s1.315-0.985,1.315-0.985l5.206-9.666
		c0,0-0.627-0.832-0.318-1.674c0.309-0.843,1.35-0.799,1.35-0.799L45.985,9.373z"/>
	<path fill="none" stroke="#565952" stroke-miterlimit="10" d="M40.574,19.936c0,0,0.318,1.674,1.777,2.44
		c1.459,0.766,3.678,0.59,3.678,0.59"/>
	<path fill="none" stroke="#565952" stroke-miterlimit="10" d="M34.509,31.999c0,0,1.392,1.401,2.538,2.002
		c1.146,0.602,3.019,0.579,3.019,0.579"/>
	<path fill="none" stroke="#565952" stroke-miterlimit="10" d="M29.169,42.934c0,0,0.766,1.072,2.225,1.838s2.881,0.842,2.881,0.842
		"/>
	<path fill="none" stroke="#565952" stroke-miterlimit="10" d="M25.034,51.319c0,0,0.839,1.948,1.881,2.495
		c1.042,0.547,2.88,0.339,2.88,0.339"/>
	<path fill="#77A856" stroke="#565952" stroke-miterlimit="10" d="M45.985,9.373c-1.145,1.049,0.739,3.404,1.781,3.951
		s2.915,0.525,3.292-0.953c0.377-1.478,0.964-2.342-0.6-3.163C48.895,8.387,47.265,8.202,45.985,9.373z"/>
</g>
<g id="Layer_3">
	<polygon stroke="#77A856" stroke-miterlimit="10" points="37.992,54.299 38.104,54.493 38.375,54.25 	"/>
	<polygon stroke="#77A856" stroke-miterlimit="10" points="33.339,62.365 33.169,62.576 33.412,62.582 	"/>
</g>
</svg>
