<?xml version="1.0" encoding="utf-8"?>
<!-- Generator: Adobe Illustrator 19.1.0, SVG Export Plug-In . SVG Version: 6.00 Build 0)  -->
<svg version="1.1" id="Layer_3" xmlns="http://www.w3.org/2000/svg" xmlns:xlink="http://www.w3.org/1999/xlink" x="0px" y="0px"
	 width="512px" height="512px" viewBox="247 -247 512 512" style="enable-background:new 247 -247 512 512;" xml:space="preserve">
<g>
	<path d="M418.2,152.5c-2.6,0.8-4.4,1.7-6.2,1.8c-9.1,0.5-31.9,6.6-32.3,15.7c-0.1,2.5,0,5,0,7.5c0.2,11.9,9.5,18.8,21.1,15.7
		c0.8-0.2,1.7-0.4,3.1-0.8c0.6,2.6,1.2,5,1.7,7.3c1.6,7.6-10,26.1-18.2,28.2c-13.5,3.6-10.6,5.7-24.6,5.5
		c-5.7-0.1-55.2-1.8-60.9-1.9c-10.3-0.1-18.8-6.7-20.4-16.3c-0.3-2.1,0.4-5.1,1.8-6.6c4.8-5.4,10-10.5,15.1-15.5
		c6.8-6.6,10.1-14.5,9.9-24c-0.1-4.6-0.1-9.3,0-13.9c0.3-12.8-6.9-24.2-18.6-29.4c-1.6-0.7-3.2-1.4-5.1-2.2c1.5-5.7,6-8.1,10.5-9.1
		c10.8-2.3,65.5-2.2,76.5-3.8c8.5-1.3,12.8-3.4,21.3-4.7c1.8-0.3,11.5-4.9,13-6c6.3-4.5,9.6-0.5,15.9,3.8c8.2,5.5,16.2,11.6,23.7,18
		c13.8,11.8,27.3,24,40.7,36.3c3.8,3.5,6.7,7.9,10,11.8c0.7-0.4,1.5-0.8,2.2-1.2c2.6-8.4,5.3-16.8,7.6-25.3c11.7-43,23.3-86,35-129
		c9.7-35.4,19.5-70.8,29.2-106.2c8.2-29.9,16.1-59.9,24.6-89.7c3.2-11.3,7.5-22.3,12-33.1c5.5-13,23.3-16.8,32.6-6.2
		c9.7,11,21.7,12.8,34.8,12.5c10.3-0.2,20.6-1.1,30.9-1.9c12.6-0.9,20.5,4.4,24.4,16.1c1.7,4.9,0.7,7.4-4.3,9.2
		c-7.4,2.7-1.1,10.6-5.8,17.6c-5.5,8.2-10.2,11.4-4.5,19.5c1.8,2.5-5.1,11.4-5.1,14.5c0.2,97.4,0.2,194.9,0.1,292.3
		c0,2.3-0.7,5-1.9,7c-7.5,12.4-0.7,25.1,13.8,25.7c7.7,0.3,8.7,1.5,7.9,9.5c-1,10.7-10.2,18.6-21.2,18.9c-7.8,0.2-15.6,1.5-23.4,1.7
		c-12.2,0.2-24.5,0.2-36.7-0.3c-14.2-0.6-20.7-10.8-26.4-22c-5.7-11.2-5.2-23.5-7.4-35.4c-4.7-25.8-8.9-51.6-13.2-77.4
		c-2.5-14.8-4.3-29.5-2-44.6c0.9-5.7-0.4-11.7-0.7-17.6c-1-16.4-2-32.7-3-49.1c-0.1-1-0.2-1.9-1.3-3.1c-2.1,7.6-4.2,15.2-6.3,22.9
		c-8.7,32.9-17.3,65.9-26.1,98.7c-6.7,24.8-13.4,49.5-20.7,74.2c-3.3,11.2-7.6,22.2-12,33.1c-3.3,8.1-8.7,19.8-17.3,20.1
		c-2.4,0.1-3.8-0.2-6,0.7c-9,3.7-20.2-5.6-27.2-12.3c-18.7-17.8-37.5-35.5-56.3-53.2C421.1,154.6,419.2,153.3,418.2,152.5z"/>
	<path d="M273.2-138.5c-1.3-11.1-2.8-21.9-3.7-32.6c-0.3-3,0.3-7.1,2.2-9.1c8.4-9.1,15.5-19.8,28.9-22.8c31.6-7.1,63.6-7.8,95.7-5.6
		c15.4,1.1,30.6,4.5,43.8,13.8c3.1,2.2,7.2,3.1,10.8,4.4c18.4,6.6,33.2,18.6,46.5,32.4c12.3,12.7,22.9,26.8,31.3,42.5
		c8.3,15.5,11.7,31.8,9.5,49.4c-3.2,25-15.8,45.5-30.7,64.8c-25.5,33-59.6,54.4-97,70.7c-15.4,6.7-32,10.9-48.2,15.8
		c-9.4,2.9-18.7-0.3-27.9-2.3c-8.3-1.8-15.3-6.4-22-11.5c-8.9-6.8-14.3-21.3-12.2-32.2c5.1-26.2,9.6-52.6,14.7-78.8
		c3.6-18.7,8.1-37.3,11.7-56c1.8-9.3,4.4-18.6,2.1-28.5c-2.6-11.1-10.8-15.7-20-18.7c-10.6-3.5-21.4-3.3-31.3,3.2
		c-0.6,0.4-1.3,0.6-2,0.9C275-138.7,274.6-138.7,273.2-138.5z M382.1-139.3c7.2,54.9,9.8,108.5,3.7,163.1
		C418.6,7.1,444-15.7,463-45.5c7.5-11.8,12-25.1,5.7-38.6c-12.1-26.1-29.6-46.8-59.9-52.1C400.5-137.7,392-138.2,382.1-139.3z"/>
</g>
</svg>
